<svg width="15" height="9" viewBox="0 0 15 9" fill="none" xmlns="http://www.w3.org/2000/svg">
<path d="M14.2471 0.952326C14.0239 0.7276 13.7188 0.599609 13.4018 0.599609C13.0848 0.599609 12.7797 0.7276 12.5564 0.952326L7.44882 6.07214L2.34121 0.952326C1.87388 0.484998 1.11787 0.484998 0.650545 0.952326C0.183217 1.41965 0.183217 2.17566 0.650545 2.64299L6.60359 8.59603C6.82683 8.82076 7.13191 8.94875 7.44894 8.94875C7.76596 8.94875 8.07103 8.82076 8.29429 8.59603L14.2473 2.64299C14.4721 2.41975 14.6 2.11466 14.6 1.79764C14.6 1.48061 14.4721 1.17555 14.2473 0.952288L14.2471 0.952326Z" fill="#3A6D51"/>
</svg>
