<svg width="132" height="36" viewBox="0 0 132 36" fill="none" xmlns="http://www.w3.org/2000/svg">
<path fill-rule="evenodd" clip-rule="evenodd" d="M29.7021 13.6649C30.2854 13.7048 32.112 13.8909 33.3029 15.6338C33.4219 15.808 33.462 16.0242 33.4135 16.2295C33.365 16.4348 33.2322 16.6101 33.0479 16.7126C33.0481 16.7124 33.0483 16.7123 33.0479 16.7126C33.0327 16.7215 32.6723 16.9322 32.3197 17.3475C31.9629 17.7678 31.6298 18.3762 31.6366 19.2026C31.6477 20.218 32.0828 20.8724 32.518 21.2871C32.8989 21.6501 33.2748 21.8219 33.3465 21.8547C33.3604 21.861 33.3629 21.8621 33.3518 21.8584C33.7327 21.9854 33.9461 22.3899 33.8358 22.776C33.8075 22.8748 33.4486 24.0933 32.584 25.3559C32.2451 25.8536 31.8488 26.4282 31.3709 26.8745C30.8784 27.3344 30.247 27.708 29.4376 27.7218C28.7265 27.7384 28.2337 27.525 27.8511 27.3593C27.8381 27.3536 27.8252 27.3481 27.8125 27.3426C27.4465 27.1844 27.1567 27.066 26.6826 27.066C26.1928 27.066 25.8842 27.181 25.5299 27.3311C25.5 27.3438 25.4693 27.357 25.4378 27.3705C25.0827 27.523 24.6209 27.7214 23.9927 27.7483L23.9852 27.7486C23.1528 27.7759 22.487 27.3537 21.988 26.8858C21.491 26.4198 21.0675 25.8212 20.7223 25.3257L20.7207 25.3234C19.945 24.2012 19.2749 22.6446 18.989 21.0238C18.7042 19.4088 18.7857 17.6366 19.6365 16.1591M29.7021 13.6649C28.8447 13.5989 28.0851 13.8349 27.5151 14.0471C27.3518 14.1079 27.2313 14.1556 27.123 14.1985C27.0078 14.2441 26.9065 14.2842 26.7823 14.3287C26.684 14.3639 26.6079 14.3876 26.5476 14.4023C26.5183 14.4094 26.4963 14.4135 26.4805 14.4157C26.4654 14.4179 26.4586 14.418 26.4586 14.418C26.4243 14.4179 26.3345 14.405 26.1508 14.3407C26.0159 14.2935 25.876 14.2359 25.708 14.1668C25.65 14.143 25.5887 14.1177 25.5231 14.0911C25.0548 13.9009 24.4114 13.654 23.7186 13.654C21.9936 13.654 20.4744 14.7022 19.6365 16.1591M27.2881 15.7409C27.0612 15.8222 26.761 15.918 26.4586 15.918C26.1648 15.918 25.8809 15.8354 25.6553 15.7565C25.4787 15.6947 25.2861 15.6154 25.1086 15.5423C25.0571 15.5211 25.0068 15.5004 24.9586 15.4808C24.4865 15.289 24.0878 15.154 23.7186 15.154C22.6198 15.154 21.5549 15.832 20.9368 16.9068C20.3238 17.9712 20.2166 19.3482 20.4662 20.7632C20.7147 22.1718 21.3018 23.5256 21.9537 24.4693C22.3092 24.9794 22.649 25.4494 23.014 25.7916C23.3757 26.1307 23.6699 26.2569 23.9326 26.2495C24.2763 26.2341 24.5057 26.1366 24.8754 25.9794C24.8979 25.9699 24.921 25.9601 24.9446 25.95C25.3696 25.7699 25.8965 25.566 26.6826 25.566C27.4756 25.566 27.9988 25.789 28.4075 25.9656C28.7937 26.1325 29.0274 26.2313 29.4045 26.2222L29.4107 26.222C29.7318 26.2169 30.025 26.0789 30.3471 25.7782C30.6842 25.4634 30.9926 25.028 31.3447 24.5109L31.3459 24.5091C31.7505 23.9184 32.0247 23.3362 32.1909 22.9276C31.9745 22.7892 31.7284 22.6067 31.4832 22.373C30.8181 21.7391 30.1528 20.7182 30.1367 19.218L30.1367 19.2164C30.1228 17.603 30.9535 16.53 31.5952 15.9429C30.8619 15.2864 29.9888 15.1879 29.5968 15.1612L29.5893 15.1607C29.0643 15.1198 28.5543 15.2608 28.0384 15.4529C27.9489 15.4862 27.8337 15.5312 27.7155 15.5775C27.5614 15.6378 27.4022 15.7 27.2881 15.7409Z" fill="#00441F"/>
<path fill-rule="evenodd" clip-rule="evenodd" d="M27.8903 10.3343C27.6115 10.6665 27.4325 11.0292 27.3777 11.327C27.3509 11.4725 27.3613 11.5603 27.3718 11.6008C27.3723 11.6029 27.3728 11.6049 27.3734 11.6067C27.3752 11.6069 27.3773 11.6071 27.3794 11.6073C27.4212 11.6105 27.5094 11.6055 27.6481 11.5539C27.9319 11.4482 28.258 11.209 28.5368 10.8768C28.8155 10.5446 28.9945 10.1819 29.0493 9.88404C29.0761 9.73855 29.0657 9.65075 29.0553 9.61023C29.0547 9.60812 29.0542 9.60616 29.0537 9.60434C29.0518 9.60415 29.0498 9.60396 29.0476 9.60379C29.0059 9.60054 28.9176 9.60557 28.779 9.65718C28.4952 9.76285 28.169 10.0021 27.8903 10.3343ZM28.2556 8.25148C28.8342 8.03608 29.5107 8.01931 30.023 8.44924C30.5353 8.87917 30.6362 9.54829 30.5245 10.1555C30.4116 10.7695 30.0864 11.3636 29.6858 11.841C29.2851 12.3184 28.7565 12.7417 28.1714 12.9596C27.5928 13.175 26.9164 13.1918 26.404 12.7618C25.8917 12.3319 25.7908 11.6628 25.9025 11.0556C26.0155 10.4415 26.3406 9.8475 26.7413 9.37007C27.1419 8.89264 27.6705 8.46933 28.2556 8.25148Z" fill="#00441F"/>
<path d="M54.3148 19.4011H49.8387L48.7631 22.6239H46.8666L51.1081 10.6988H53.0784L57.319 22.6239H55.3903L54.3148 19.4011ZM50.3012 17.9126H53.8503L52.1004 12.6828H52.0521L50.3012 17.9126ZM66.4774 18.2775C66.4774 20.9789 65.0529 22.7141 62.9028 22.7141C62.3585 22.743 61.8172 22.6157 61.3408 22.3468C60.8643 22.078 60.4721 21.6785 60.2088 21.194H60.1681V25.5H58.4087V13.9293H60.1114V15.3755H60.1426C60.4179 14.8931 60.8169 14.4954 61.2971 14.2249C61.7773 13.9543 62.3208 13.821 62.8697 13.839C65.0434 13.839 66.4765 15.5829 66.4765 18.2775H66.4774ZM64.6707 18.2775C64.6707 16.5173 63.774 15.3601 62.4071 15.3601C61.0639 15.3601 60.1606 16.5413 60.1606 18.2775C60.1606 20.0291 61.0639 21.2026 62.4071 21.2026C63.774 21.2026 64.6707 20.0531 64.6707 18.2775ZM75.9036 18.2775C75.9036 20.9789 74.479 22.7141 72.3289 22.7141C71.7846 22.743 71.2433 22.6157 70.7669 22.3468C70.2905 22.078 69.8982 21.6785 69.6349 21.194H69.5943V25.5H67.8358V13.9293H69.5375V15.3755H69.5697C69.845 14.8931 70.244 14.4954 70.7242 14.2249C71.2044 13.9543 71.7478 13.821 72.2968 13.839C74.4705 13.839 75.9036 15.5829 75.9036 18.2775ZM74.0968 18.2775C74.0968 16.5173 73.2001 15.3601 71.8333 15.3601C70.49 15.3601 69.5867 16.5413 69.5867 18.2775C69.5867 20.0291 70.49 21.2026 71.8333 21.2026C73.2001 21.2026 74.0959 20.0531 74.0959 18.2775H74.0968ZM82.1325 19.3012C82.263 20.4843 83.3943 21.2602 84.9418 21.2602C86.4232 21.2602 87.4892 20.4843 87.4892 19.4174C87.4892 18.4917 86.846 17.9385 85.3231 17.5583L83.8011 17.1857C81.6444 16.6575 80.6426 15.6328 80.6426 13.9705C80.6426 11.9136 82.4087 10.5 84.9172 10.5C87.3993 10.5 89.1011 11.9136 89.1578 13.9705H87.3833C87.2773 12.7807 86.3087 12.0624 84.8917 12.0624C83.4747 12.0624 82.507 12.7894 82.507 13.8467C82.507 14.6898 83.1257 15.1863 84.6401 15.5656L85.9341 15.8883C88.3443 16.4673 89.3451 17.4497 89.3451 19.1946C89.3451 21.4254 87.5952 22.8227 84.8113 22.8227C82.2062 22.8227 80.4468 21.459 80.3333 19.3012H82.1325ZM93.1392 11.8723V13.9293H94.7681V15.3428H93.1392V20.1357C93.1392 20.8809 93.4655 21.2276 94.1816 21.2276C94.3748 21.2242 94.5678 21.2104 94.7596 21.1863V22.5912C94.4378 22.6523 94.1107 22.68 93.7834 22.6738C92.0495 22.6738 91.3732 22.0122 91.3732 20.3259V15.3428H90.1283V13.9293H91.3732V11.8723H93.1392ZM95.7112 18.2775C95.7112 15.5416 97.2984 13.8227 99.773 13.8227C102.256 13.8227 103.836 15.5416 103.836 18.2775C103.836 21.0202 102.265 22.7314 99.773 22.7314C97.2823 22.7314 95.7112 21.0202 95.7112 18.2775ZM102.044 18.2775C102.044 16.4011 101.198 15.2929 99.773 15.2929C98.3484 15.2929 97.5027 16.4088 97.5027 18.2775C97.5027 20.1616 98.3484 21.2602 99.773 21.2602C101.198 21.2602 102.044 20.1616 102.044 18.2775ZM105.285 13.9293H106.962V15.4091H107.003C107.116 14.9472 107.383 14.5391 107.758 14.2532C108.133 13.9673 108.593 13.821 109.062 13.839C109.265 13.8381 109.467 13.8604 109.664 13.9052V15.5743C109.409 15.495 109.142 15.4587 108.875 15.4667C108.619 15.4562 108.365 15.5019 108.128 15.6007C107.892 15.6995 107.679 15.849 107.505 16.039C107.331 16.2291 107.2 16.4551 107.12 16.7016C107.04 16.9481 107.014 17.2092 107.042 17.467V22.6239H105.285V13.9293ZM117.769 20.0704C117.533 21.6482 116.019 22.7314 114.082 22.7314C111.59 22.7314 110.044 21.0374 110.044 18.3188C110.044 15.5915 111.599 13.8227 114.007 13.8227C116.378 13.8227 117.867 15.4744 117.867 18.1114V18.7231H111.818V18.8307C111.79 19.1506 111.83 19.473 111.934 19.7763C112.039 20.0795 112.205 20.3568 112.423 20.5897C112.641 20.8226 112.905 21.0057 113.198 21.127C113.491 21.2482 113.806 21.3048 114.123 21.2929C114.538 21.3323 114.955 21.2346 115.311 21.0144C115.667 20.7941 115.944 20.4631 116.1 20.0704H117.769ZM111.827 17.4757H116.108C116.124 17.188 116.081 16.9001 115.982 16.6301C115.883 16.36 115.73 16.1137 115.533 15.9065C115.336 15.6993 115.099 15.5356 114.836 15.4259C114.574 15.3162 114.292 15.2627 114.008 15.2689C113.722 15.2671 113.438 15.3229 113.173 15.4331C112.908 15.5433 112.667 15.7056 112.465 15.9108C112.262 16.116 112.101 16.3599 111.992 16.6285C111.882 16.8971 111.826 17.185 111.827 17.4757Z" fill="#00441F"/>
<rect x="1.36658" y="0.5" width="130" height="35" rx="4.5" stroke="#00441F"/>
</svg>
