<svg width="6" height="9" viewBox="0 0 6 9" fill="none" xmlns="http://www.w3.org/2000/svg">
<path d="M0.253474 0.222109C0.0919782 0.36261 -4.21519e-07 0.554623 -4.1156e-07 0.754149C-4.01601e-07 0.953676 0.0919782 1.14567 0.253475 1.28619L3.93276 4.50077L0.253475 7.71535C-0.0823643 8.00948 -0.0823643 8.48529 0.253475 8.77941C0.589314 9.07353 1.13261 9.07353 1.46845 8.77941L5.74652 5.03274C5.90802 4.89224 6 4.70022 6 4.5007C6 4.30117 5.90802 4.10917 5.74652 3.96866L1.46845 0.221991C1.30802 0.0805549 1.08877 -4.16802e-08 0.860948 -3.29586e-08C0.633121 -2.4237e-08 0.413892 0.0805549 0.253447 0.221991L0.253474 0.222109Z" fill="#00CF7B"/>
</svg>
