<svg width="14" height="14" viewBox="0 0 14 14" fill="none" xmlns="http://www.w3.org/2000/svg">
<g id="ic-arrow">
<path id="Vector" d="M13.4887 3.77333C13.2858 3.58363 13.0084 3.47559 12.7202 3.47559C12.432 3.47559 12.1547 3.58363 11.9517 3.77333L7.30846 8.09525L2.66517 3.77333C2.24033 3.37884 1.55305 3.37884 1.1282 3.77333C0.703359 4.16783 0.703359 4.80602 1.1282 5.20052L6.54006 10.2258C6.74301 10.4155 7.02036 10.5236 7.30856 10.5236C7.59677 10.5236 7.8741 10.4155 8.07706 10.2258L13.4889 5.20052C13.6932 5.01207 13.8096 4.75453 13.8096 4.48691C13.8096 4.21929 13.6932 3.96177 13.4889 3.7733L13.4887 3.77333Z" fill="#00A8E2"/>
</g>
</svg>
