<svg width="29" height="23" viewBox="0 0 29 23" fill="none" xmlns="http://www.w3.org/2000/svg">
<path d="M15.9818 22.6987L20.0881 19.4661L27.689 12.6515C27.8638 12.4767 28.0385 12.2146 28.0385 11.9525C28.0385 11.6904 27.9511 11.4283 27.689 11.2536L15.8071 1.11903C15.6324 0.944301 15.3703 0.856934 15.1082 0.856934C14.8461 0.856934 14.6713 1.03167 14.4966 1.2064C14.1471 1.64324 14.2345 2.16744 14.584 2.51691L24.2817 10.9041H1.56629C1.30419 10.9041 1.04209 10.9915 0.867356 11.1662C0.692622 11.341 0.605255 11.6031 0.605255 11.8652C0.605255 12.3894 1.04209 12.8262 1.56629 12.8262H24.5438L18.6902 18.0682L14.6713 21.3008C14.4966 21.4755 14.3219 21.6503 14.3219 21.9124C14.3219 22.1745 14.3219 22.4366 14.4966 22.6113C14.9334 22.8734 15.545 22.9608 15.9818 22.6987Z" fill="#0079A3"/>
</svg>
