<svg width="29" height="22" viewBox="0 0 29 22" fill="none" xmlns="http://www.w3.org/2000/svg">
<g clip-path="url(#clip0)">
<path d="M16.1985 21.8417L20.3047 18.6092L27.9057 11.7945C28.0804 11.6198 28.2551 11.3577 28.2551 11.0956C28.2551 10.8335 28.1678 10.5714 27.9057 10.3967L16.0238 0.262101C15.849 0.087367 15.5869 0 15.3248 0C15.0627 0 14.888 0.174734 14.7133 0.349468C14.3638 0.786303 14.4511 1.3105 14.8006 1.65997L24.4984 10.0472H1.78294C1.52084 10.0472 1.25873 10.1346 1.084 10.3093C0.909266 10.484 0.821899 10.7461 0.821899 11.0082C0.821899 11.5324 1.25873 11.9693 1.78294 11.9693H24.7605L18.9069 17.2113L14.888 20.4439C14.7132 20.6186 14.5385 20.7933 14.5385 21.0554C14.5385 21.3175 14.5385 21.5796 14.7133 21.7544C15.1501 22.0165 15.7617 22.1038 16.1985 21.8417Z" fill="#00441F"/>
</g>
<defs>
<clipPath id="clip0">
<rect width="27.7895" height="22" fill="white" transform="translate(0.821899)"/>
</clipPath>
</defs>
</svg>
