<svg width="40" height="40" viewBox="0 0 40 40" fill="none" xmlns="http://www.w3.org/2000/svg">
<g clip-path="url(#clip0_2910_5607)">
<path d="M21.3647 21.3997C25.5813 21.3997 28.9996 17.9814 28.9996 13.7648C28.9996 9.54815 25.5813 6.12988 21.3647 6.12988C17.148 6.12988 13.7297 9.54815 13.7297 13.7648C13.7297 17.9814 17.148 21.3997 21.3647 21.3997Z" fill="#00CF7B"/>
<path d="M27.068 33.5112H10.9473C10.8134 33.5112 10.685 33.458 10.5903 33.3633C10.4956 33.2686 10.4424 33.1402 10.4424 33.0063C10.4424 32.8724 10.4956 32.7439 10.5903 32.6492C10.685 32.5545 10.8134 32.5013 10.9473 32.5013H27.068C27.3973 32.5012 27.7142 32.3758 27.9542 32.1504L39.1339 21.6246C39.1626 21.5975 39.1851 21.5645 39.1999 21.5279C39.2147 21.4913 39.2215 21.452 39.2198 21.4125C39.2207 21.3743 39.2136 21.3363 39.1988 21.3011C39.184 21.2658 39.1619 21.2341 39.1339 21.208C37.5458 19.9456 35.9805 19.9759 34.203 21.309C31.749 23.1521 28.1436 25.8814 28.1436 25.8814L27.52 25.0835C27.52 25.0835 31.1304 22.3543 33.5794 20.5087C35.723 18.9004 37.7958 18.8726 39.7449 20.4253C39.8878 20.5404 40.0043 20.6848 40.0866 20.8487C40.1689 21.0127 40.2151 21.1923 40.222 21.3756C40.2289 21.559 40.1965 21.7416 40.1268 21.9113C40.0571 22.081 39.9519 22.2338 39.8181 22.3593L28.641 32.8851C28.2156 33.2866 27.653 33.5106 27.068 33.5112Z" fill="#00441F"/>
<path d="M27.3281 28.6085H18.3474C18.2135 28.6085 18.0851 28.5553 17.9904 28.4606C17.8957 28.3659 17.8425 28.2375 17.8425 28.1035C17.8425 27.9696 17.8957 27.8412 17.9904 27.7465C18.0851 27.6518 18.2135 27.5986 18.3474 27.5986H27.3281C27.3435 27.5987 27.3588 27.5954 27.3727 27.5888C27.3867 27.5823 27.3991 27.5727 27.4088 27.5607C27.4209 27.5465 27.43 27.53 27.4356 27.5122C27.4412 27.4945 27.4433 27.4758 27.4417 27.4572C27.1892 24.9047 25.3663 24.7077 24.8159 24.7077H20.2435C20.1428 24.708 20.0444 24.6781 19.9608 24.6219C17.8879 23.2282 16.6634 22.9757 14.28 22.9757C11.4094 22.9757 9.1623 24.3921 6.26386 28.0253C6.18016 28.1301 6.05826 28.1973 5.92497 28.2122C5.79168 28.2272 5.65793 28.1885 5.55314 28.1048C5.44834 28.0211 5.38109 27.8992 5.36618 27.7659C5.35126 27.6326 5.3899 27.4989 5.47361 27.3941C8.54878 23.5438 11.1089 21.9658 14.28 21.9658C16.6861 21.9658 18.1581 22.2183 20.395 23.6928H24.8159C25.3613 23.6928 28.0981 23.8695 28.4465 27.3512C28.4626 27.5106 28.445 27.6716 28.395 27.8238C28.345 27.976 28.2636 28.116 28.1562 28.2348C28.0518 28.3513 27.9242 28.4448 27.7816 28.5091C27.639 28.5735 27.4845 28.6073 27.3281 28.6085Z" fill="#00441F"/>
<path d="M0.277832 29.6837L2.67384 27.2877C3.12886 26.8327 3.74597 26.5771 4.38943 26.5771C5.03289 26.5771 5.65 26.8327 6.10501 27.2877L12.9219 34.1046C13.1471 34.3297 13.3258 34.597 13.4476 34.8911C13.5695 35.1853 13.6323 35.5005 13.6323 35.8189C13.6323 36.1373 13.5695 36.4526 13.4476 36.7468C13.3258 37.0409 13.1471 37.3082 12.9219 37.5333L10.5284 39.9293" fill="#00CF7B"/>
<path d="M29.7141 20.8145C29.6192 20.8145 29.5263 20.7878 29.4459 20.7375C29.3655 20.6871 29.3009 20.6151 29.2595 20.5297C29.2181 20.4444 29.2017 20.3491 29.212 20.2547C29.2223 20.1604 29.2589 20.0709 29.3177 19.9965C30.733 18.2152 31.4997 16.0051 31.4916 13.73C31.4931 12.1396 31.1199 10.5711 30.4024 9.15175C29.6849 7.73237 28.6432 6.50194 27.3616 5.56013C26.08 4.61831 24.5946 3.99159 23.0257 3.73073C21.4568 3.46986 19.8485 3.58219 18.3311 4.05861C16.8138 4.53504 15.4299 5.36215 14.2917 6.47298C13.1535 7.5838 12.2929 8.94709 11.7796 10.4524C11.2664 11.9578 11.1149 13.5628 11.3375 15.1376C11.56 16.7124 12.1504 18.2126 13.0607 19.5168C13.1027 19.5709 13.1332 19.6331 13.1504 19.6994C13.1676 19.7657 13.1711 19.8348 13.1608 19.9026C13.1504 19.9703 13.1263 20.0352 13.0901 20.0934C13.0538 20.1515 13.0061 20.2017 12.9498 20.2408C12.8936 20.2799 12.8299 20.3071 12.7628 20.3209C12.6957 20.3346 12.6265 20.3345 12.5594 20.3206C12.4923 20.3067 12.4287 20.2794 12.3725 20.2401C12.3163 20.2009 12.2687 20.1506 12.2326 20.0924C11.0533 18.3996 10.3674 16.4124 10.2515 14.3525C10.1355 12.2927 10.5941 10.2411 11.5759 8.4266C12.5577 6.61209 14.0243 5.10598 15.8121 4.07624C17.5998 3.0465 19.6385 2.5336 21.7007 2.59474C23.7629 2.65588 25.7676 3.28866 27.4912 4.42251C29.2148 5.55636 30.5896 7.14671 31.4622 9.0162C32.3349 10.8857 32.671 12.9608 32.4332 15.0102C32.1955 17.0596 31.3931 19.0026 30.1156 20.6226C30.0677 20.6831 30.0067 20.7319 29.9371 20.7652C29.8675 20.7984 29.7913 20.8153 29.7141 20.8145Z" fill="#00441F"/>
<path d="M21.9654 17.8781H20.7636C20.2891 17.8573 19.829 17.7086 19.4321 17.4477C19.0352 17.1868 18.7162 16.8234 18.509 16.396C18.4493 16.2765 18.4394 16.1381 18.4815 16.0113C18.5237 15.8844 18.6143 15.7795 18.7337 15.7194C18.793 15.6894 18.8577 15.6715 18.924 15.6665C18.9903 15.6616 19.0569 15.6698 19.12 15.6907C19.1831 15.7116 19.2414 15.7447 19.2917 15.7882C19.3419 15.8317 19.3831 15.8847 19.4129 15.9441C19.5354 16.2044 19.7252 16.4273 19.9626 16.5898C20.2001 16.7522 20.4766 16.8483 20.7636 16.8681H21.9654C22.3 16.8534 22.616 16.7101 22.8476 16.4681C23.0792 16.2261 23.2084 15.9041 23.2084 15.5692C23.2084 15.2342 23.0792 14.9122 22.8476 14.6702C22.616 14.4282 22.3 14.2849 21.9654 14.2702H20.7636C20.1645 14.2503 19.5965 13.9984 19.1797 13.5676C18.7629 13.1367 18.5298 12.5607 18.5298 11.9613C18.5298 11.3618 18.7629 10.7858 19.1797 10.3549C19.5965 9.9241 20.1645 9.67216 20.7636 9.65234H21.9654C22.44 9.67307 22.9001 9.82177 23.297 10.0827C23.6939 10.3436 24.0128 10.707 24.2201 11.1344C24.2798 11.2539 24.2896 11.3923 24.2475 11.5191C24.2054 11.646 24.1147 11.7509 23.9953 11.811C23.936 11.841 23.8714 11.8589 23.8051 11.8639C23.7388 11.8688 23.6722 11.8606 23.6091 11.8397C23.546 11.8188 23.4877 11.7857 23.4374 11.7422C23.3871 11.6987 23.3459 11.6458 23.3162 11.5863C23.1937 11.326 23.0039 11.1031 22.7664 10.9406C22.529 10.7782 22.2525 10.6821 21.9654 10.6623H20.7636C20.429 10.677 20.113 10.8203 19.8815 11.0623C19.6499 11.3043 19.5207 11.6263 19.5207 11.9613C19.5207 12.2962 19.6499 12.6182 19.8815 12.8602C20.113 13.1022 20.429 13.2455 20.7636 13.2602H21.9654C22.5646 13.2801 23.1326 13.532 23.5494 13.9628C23.9662 14.3937 24.1992 14.9697 24.1992 15.5692C24.1992 16.1686 23.9662 16.7446 23.5494 17.1755C23.1326 17.6063 22.5646 17.8582 21.9654 17.8781Z" fill="#00441F"/>
<path d="M21.3646 10.6625C21.2307 10.6625 21.1022 10.6093 21.0075 10.5146C20.9128 10.4199 20.8596 10.2914 20.8596 10.1575V8.9532C20.8596 8.81927 20.9128 8.69084 21.0075 8.59614C21.1022 8.50144 21.2307 8.44824 21.3646 8.44824C21.4985 8.44824 21.6269 8.50144 21.7216 8.59614C21.8163 8.69084 21.8695 8.81927 21.8695 8.9532V10.1575C21.8695 10.2914 21.8163 10.4199 21.7216 10.5146C21.6269 10.6093 21.4985 10.6625 21.3646 10.6625Z" fill="#00441F"/>
<path d="M21.3646 19.0824C21.2307 19.0824 21.1022 19.0292 21.0075 18.9345C20.9128 18.8398 20.8596 18.7114 20.8596 18.5774V17.3731C20.8596 17.2392 20.9128 17.1108 21.0075 17.0161C21.1022 16.9214 21.2307 16.8682 21.3646 16.8682C21.4985 16.8682 21.6269 16.9214 21.7216 17.0161C21.8163 17.1108 21.8695 17.2392 21.8695 17.3731V18.5774C21.8695 18.7114 21.8163 18.8398 21.7216 18.9345C21.6269 19.0292 21.4985 19.0824 21.3646 19.0824Z" fill="#00441F"/>
</g>
<defs>
<clipPath id="clip0_2910_5607">
<rect width="40" height="40" fill="white"/>
</clipPath>
</defs>
</svg>
