<svg width="40" height="40" viewBox="0 0 40 40" fill="none" xmlns="http://www.w3.org/2000/svg">
<path d="M21.3975 20.4859H18.6026C18.2633 20.4852 17.9381 20.3501 17.6982 20.1102C17.4582 19.8703 17.3232 19.5451 17.3225 19.2058V18.3499C16.959 18.2327 16.6039 18.091 16.2596 17.9258L15.6536 18.514C15.5349 18.6332 15.3939 18.7277 15.2385 18.7923C15.0832 18.8568 14.9167 18.89 14.7485 18.89C14.5803 18.89 14.4138 18.8568 14.2584 18.7923C14.1031 18.7277 13.9621 18.6332 13.8434 18.514L11.8665 16.5397C11.6264 16.2996 11.4915 15.974 11.4915 15.6345C11.4915 15.295 11.6264 14.9694 11.8665 14.7294L12.4648 14.1386C12.2914 13.7916 12.1421 13.4331 12.0179 13.0656H11.1797C10.8404 13.0649 10.5152 12.9298 10.2753 12.6899C10.0354 12.45 9.90033 12.1248 9.89966 11.7855V8.98805C9.90033 8.64877 10.0354 8.32357 10.2753 8.08365C10.5152 7.84374 10.8404 7.70866 11.1797 7.70799H12.0179C12.1412 7.34013 12.2905 6.98155 12.4648 6.63496L11.8665 6.04164C11.7473 5.92295 11.6527 5.78189 11.5882 5.62656C11.5237 5.47124 11.4905 5.3047 11.4905 5.13651C11.4905 4.96832 11.5237 4.80178 11.5882 4.64646C11.6527 4.49113 11.7473 4.35007 11.8665 4.23138L13.8408 2.25448C14.0812 2.01504 14.4067 1.88061 14.746 1.88061C15.0852 1.88061 15.4107 2.01504 15.6511 2.25448L16.2545 2.8579C16.5985 2.68841 16.9537 2.54247 17.3174 2.42112V1.56522C17.3181 1.22593 17.4532 0.900728 17.6931 0.660814C17.933 0.420901 18.2582 0.285823 18.5975 0.285156H21.3975C21.737 0.285156 22.0626 0.420019 22.3026 0.660077C22.5427 0.900135 22.6775 1.22572 22.6775 1.56522V2.43879C23.039 2.55976 23.3917 2.70571 23.7329 2.87558L24.354 2.25448C24.5947 2.01566 24.92 1.88164 25.2591 1.88164C25.5982 1.88164 25.9235 2.01566 26.1643 2.25448L28.1412 4.23138C28.38 4.47209 28.514 4.79743 28.514 5.13651C28.514 5.47559 28.38 5.80093 28.1412 6.04164L27.5125 6.67031C27.6765 7.00685 27.819 7.35344 27.9392 7.70799H28.8304C29.1697 7.70866 29.4949 7.84374 29.7348 8.08365C29.9747 8.32357 30.1098 8.64877 30.1105 8.98805V11.783C30.1098 12.1223 29.9747 12.4475 29.7348 12.6874C29.4949 12.9273 29.1697 13.0624 28.8304 13.063H27.9392C27.8192 13.4181 27.6758 13.7647 27.51 14.1007L28.1412 14.7294C28.38 14.9701 28.514 15.2954 28.514 15.6345C28.514 15.9736 28.38 16.2989 28.1412 16.5397L26.1643 18.514C26.0456 18.6332 25.9045 18.7277 25.7492 18.7923C25.5939 18.8568 25.4273 18.89 25.2591 18.89C25.0909 18.89 24.9244 18.8568 24.7691 18.7923C24.6137 18.7277 24.4727 18.6332 24.354 18.514L23.7329 17.8955C23.3942 18.0632 23.045 18.2091 22.6876 18.3322V19.2058C22.6873 19.3747 22.6536 19.5418 22.5886 19.6976C22.5235 19.8534 22.4283 19.9949 22.3084 20.1138C22.1885 20.2327 22.0464 20.3268 21.89 20.3907C21.7337 20.4545 21.5663 20.4869 21.3975 20.4859ZM16.1586 16.7896C16.2468 16.7882 16.3339 16.81 16.4111 16.8527C16.9038 17.1247 17.4266 17.3382 17.9688 17.489C18.0746 17.5192 18.1676 17.5832 18.2337 17.6712C18.2998 17.7591 18.3353 17.8662 18.3349 17.9763V19.2058C18.3349 19.2775 18.3634 19.3462 18.4141 19.3968C18.4647 19.4475 18.5334 19.476 18.6051 19.476H21.3975C21.4691 19.476 21.5378 19.4475 21.5885 19.3968C21.6392 19.3462 21.6676 19.2775 21.6676 19.2058V17.9611C21.6676 17.8518 21.7031 17.7455 21.7686 17.6581C21.8342 17.5707 21.9263 17.5069 22.0312 17.4763C22.5675 17.3213 23.0842 17.1053 23.5713 16.8325C23.6672 16.7788 23.7781 16.7579 23.887 16.773C23.9959 16.788 24.0969 16.8382 24.1747 16.9158L25.0584 17.7995C25.1094 17.8493 25.1778 17.8772 25.249 17.8772C25.3203 17.8772 25.3887 17.8493 25.4396 17.7995L27.4165 15.8251C27.4418 15.8002 27.4619 15.7706 27.4756 15.7378C27.4893 15.7051 27.4963 15.67 27.4963 15.6345C27.4963 15.599 27.4893 15.5639 27.4756 15.5312C27.4619 15.4985 27.4418 15.4688 27.4165 15.4439L26.5253 14.5527C26.4472 14.4752 26.3966 14.3743 26.3811 14.2654C26.3656 14.1564 26.3861 14.0454 26.4395 13.9492C26.7081 13.4653 26.9199 12.9519 27.0707 12.4192C27.1009 12.3134 27.1649 12.2205 27.2528 12.1544C27.3408 12.0883 27.4479 12.0527 27.5579 12.0531H28.8203C28.892 12.0531 28.9607 12.0247 29.0113 11.974C29.062 11.9233 29.0905 11.8546 29.0905 11.783V8.98805C29.0905 8.95258 29.0835 8.91745 29.0699 8.88467C29.0563 8.8519 29.0364 8.82211 29.0113 8.79703C28.9863 8.77194 28.9565 8.75204 28.9237 8.73847C28.8909 8.72489 28.8558 8.7179 28.8203 8.7179H27.5579C27.4479 8.71829 27.3408 8.68275 27.2528 8.61666C27.1649 8.55058 27.1009 8.45759 27.0707 8.35181C26.9199 7.81837 26.7081 7.30412 26.4395 6.81927C26.3867 6.72335 26.3665 6.61287 26.382 6.50449C26.3975 6.39611 26.4478 6.29569 26.5253 6.21838L27.4165 5.32713C27.4418 5.30223 27.4619 5.27256 27.4756 5.23983C27.4893 5.20711 27.4963 5.17199 27.4963 5.13651C27.4963 5.10104 27.4893 5.06592 27.4756 5.03319C27.4619 5.00047 27.4418 4.97079 27.4165 4.94589L25.4422 2.96899C25.4171 2.94365 25.3872 2.92353 25.3542 2.9098C25.3213 2.89607 25.286 2.88901 25.2503 2.88901C25.2146 2.88901 25.1793 2.89607 25.1463 2.9098C25.1134 2.92353 25.0835 2.94365 25.0584 2.96899L24.1747 3.85266C24.0972 3.93075 23.9964 3.9814 23.8874 3.99689C23.7785 4.01239 23.6675 3.99189 23.5713 3.93851C23.0845 3.66512 22.5677 3.44908 22.0312 3.29469C21.9263 3.2641 21.8342 3.20031 21.7686 3.1129C21.7031 3.0255 21.6676 2.91919 21.6676 2.80993V1.56522C21.6676 1.49357 21.6392 1.42485 21.5885 1.37419C21.5378 1.32353 21.4691 1.29507 21.3975 1.29507H18.6026C18.5671 1.29507 18.5319 1.30205 18.4992 1.31563C18.4664 1.32921 18.4366 1.34911 18.4115 1.37419C18.3864 1.39928 18.3665 1.42906 18.353 1.46183C18.3394 1.49461 18.3324 1.52974 18.3324 1.56522V2.79478C18.3328 2.9048 18.2972 3.01193 18.2312 3.09988C18.1651 3.18784 18.0721 3.25181 17.9663 3.28206C17.4253 3.4342 16.9035 3.64766 16.4111 3.91831C16.3154 3.97139 16.2051 3.99197 16.0967 3.97694C15.9883 3.96192 15.8878 3.9121 15.8102 3.83499L14.9467 2.96899C14.9216 2.94365 14.8917 2.92353 14.8587 2.9098C14.8258 2.89607 14.7905 2.88901 14.7548 2.88901C14.7191 2.88901 14.6838 2.89607 14.6509 2.9098C14.6179 2.92353 14.588 2.94365 14.5629 2.96899L12.5885 4.94589C12.5633 4.97079 12.5432 5.00047 12.5295 5.03319C12.5158 5.06592 12.5088 5.10104 12.5088 5.13651C12.5088 5.17199 12.5158 5.20711 12.5295 5.23983C12.5432 5.27256 12.5633 5.30223 12.5885 5.32713L13.4444 6.18555C13.5221 6.26335 13.5723 6.36438 13.5873 6.47329C13.6024 6.5822 13.5815 6.69304 13.5278 6.78898C13.2513 7.28317 13.0327 7.80757 12.8764 8.35181C12.8462 8.45717 12.7826 8.54986 12.6952 8.6159C12.6077 8.68194 12.5012 8.71774 12.3916 8.7179H11.1797C11.1442 8.7179 11.1091 8.72489 11.0763 8.73847C11.0436 8.75204 11.0138 8.77194 10.9887 8.79703C10.9636 8.82211 10.9437 8.8519 10.9301 8.88467C10.9166 8.91745 10.9096 8.95258 10.9096 8.98805V11.783C10.9096 11.8546 10.938 11.9233 10.9887 11.974C11.0394 12.0247 11.1081 12.0531 11.1797 12.0531H12.3916C12.5012 12.0533 12.6077 12.0891 12.6952 12.1551C12.7826 12.2212 12.8462 12.3139 12.8764 12.4192C13.0319 12.9634 13.2497 13.4878 13.5252 13.9821C13.5789 14.078 13.5998 14.1888 13.5848 14.2977C13.5698 14.4067 13.5196 14.5077 13.4419 14.5855L12.586 15.4439C12.5608 15.4688 12.5407 15.4985 12.527 15.5312C12.5133 15.5639 12.5062 15.599 12.5062 15.6345C12.5062 15.67 12.5133 15.7051 12.527 15.7378C12.5407 15.7706 12.5608 15.8002 12.586 15.8251L14.5604 17.7995C14.6113 17.8493 14.6798 17.8772 14.751 17.8772C14.8223 17.8772 14.8907 17.8493 14.9416 17.7995L15.8076 16.936C15.9011 16.8434 16.027 16.7908 16.1586 16.7896Z" fill="#00441F"/>
<path d="M20.0013 15.401C18.6734 15.401 17.4 14.8735 16.461 13.9345C15.5221 12.9956 14.9946 11.7222 14.9946 10.3943C14.9946 9.06648 15.5221 7.79303 16.461 6.8541C17.4 5.91518 18.6734 5.3877 20.0013 5.3877C20.1352 5.3877 20.2636 5.4409 20.3583 5.53559C20.453 5.63029 20.5062 5.75873 20.5062 5.89265C20.5062 6.02657 20.453 6.15501 20.3583 6.24971C20.2636 6.3444 20.1352 6.39761 20.0013 6.39761C19.2104 6.39761 18.4372 6.63227 17.7798 7.07188C17.1223 7.51149 16.61 8.13629 16.3078 8.86719C16.0056 9.59808 15.9271 10.4022 16.0821 11.1778C16.2371 11.9533 16.6188 12.6655 17.1787 13.224C17.7387 13.7825 18.4518 14.1624 19.2277 14.3155C20.0037 14.4685 20.8076 14.388 21.5377 14.0839C22.2679 13.7799 22.8914 13.266 23.3293 12.6074C23.7673 11.9488 24 11.1751 23.998 10.3842C23.998 10.2503 24.0512 10.1219 24.1459 10.0272C24.2406 9.93247 24.369 9.87927 24.5029 9.87927C24.6369 9.87927 24.7653 9.93247 24.86 10.0272C24.9547 10.1219 25.0079 10.2503 25.0079 10.3842C25.0085 11.0424 24.8796 11.6942 24.6283 12.3025C24.3771 12.9108 24.0085 13.4636 23.5436 13.9295C23.0787 14.3953 22.5265 14.7651 21.9188 15.0175C21.311 15.27 20.6594 15.4003 20.0013 15.401Z" fill="#00441F"/>
<path d="M24.2379 9.36975C24.1342 9.3697 24.0329 9.33769 23.948 9.27805C23.8631 9.21842 23.7986 9.13407 23.7633 9.03648L23.7178 8.91276C23.6697 8.78843 23.6726 8.65008 23.726 8.52792C23.7795 8.40575 23.8791 8.30969 24.0031 8.26068C24.1271 8.21168 24.2655 8.21371 24.388 8.26635C24.5105 8.31898 24.6072 8.41794 24.6571 8.54162L24.7151 8.69311C24.7428 8.76955 24.7515 8.85153 24.7407 8.93208C24.7299 9.01264 24.6998 9.08939 24.6529 9.15582C24.6061 9.22224 24.5439 9.27638 24.4716 9.31362C24.3994 9.35087 24.3192 9.37012 24.2379 9.36975ZM23.2432 7.76652C23.1749 7.76692 23.1073 7.75349 23.0444 7.72702C22.9814 7.70054 22.9245 7.66159 22.8771 7.6125C22.8487 7.58035 22.8184 7.54999 22.7862 7.52161C22.7297 7.47849 22.6829 7.42392 22.649 7.36148C22.615 7.29904 22.5946 7.23013 22.5891 7.15926C22.5836 7.08839 22.5931 7.01716 22.617 6.95023C22.641 6.88329 22.6788 6.82216 22.7279 6.77084C22.7771 6.71951 22.8366 6.67915 22.9024 6.65239C22.9683 6.62563 23.039 6.61307 23.1101 6.61554C23.1811 6.61801 23.2508 6.63545 23.3147 6.66672C23.3785 6.69799 23.435 6.74239 23.4805 6.797L23.5966 6.91314C23.6887 7.00974 23.7388 7.13885 23.736 7.27226C23.7331 7.40567 23.6776 7.53254 23.5815 7.62513C23.4904 7.71299 23.3697 7.76344 23.2432 7.76652ZM21.6778 6.71116C21.613 6.71164 21.5487 6.69964 21.4885 6.67581C21.4506 6.65814 21.4077 6.64299 21.3673 6.62784C21.2495 6.57639 21.1557 6.48194 21.1052 6.36377C21.0546 6.24559 21.051 6.11257 21.0951 5.99184C21.1392 5.8711 21.2277 5.77173 21.3426 5.71398C21.4574 5.65623 21.5899 5.64446 21.7132 5.68105C21.7662 5.69873 21.8167 5.71892 21.8647 5.73912C21.9724 5.78339 22.0616 5.86357 22.117 5.96608C22.1725 6.06859 22.1907 6.18711 22.1687 6.30154C22.1467 6.41598 22.0858 6.51928 21.9964 6.59394C21.9069 6.6686 21.7943 6.71001 21.6778 6.71116Z" fill="#00441F"/>
<path d="M19.5569 30.8228C18.8623 30.8228 18.1833 30.6168 17.6057 30.2309C17.0282 29.845 16.5781 29.2965 16.3123 28.6548C16.0464 28.013 15.9769 27.3069 16.1124 26.6256C16.2479 25.9444 16.5824 25.3186 17.0736 24.8275C17.5647 24.3363 18.1905 24.0018 18.8717 23.8663C19.553 23.7308 20.2591 23.8003 20.9009 24.0662C21.5426 24.332 22.0911 24.7821 22.477 25.3596C22.8629 25.9372 23.0688 26.6162 23.0688 27.3108C23.0688 28.2422 22.6988 29.1355 22.0402 29.7941C21.3816 30.4527 20.4883 30.8228 19.5569 30.8228Z" fill="#00CF7B"/>
<path d="M25.6441 39.717C25.5102 39.717 25.3818 39.6638 25.2871 39.5691C25.1924 39.4744 25.1392 39.3459 25.1392 39.212C25.155 38.4688 25.0223 37.7299 24.7488 37.0386C24.4753 36.3474 24.0665 35.7177 23.5465 35.1864C23.0264 34.6552 22.4055 34.2332 21.7203 33.945C21.035 33.6569 20.299 33.5085 19.5556 33.5085C18.8123 33.5085 18.0763 33.6569 17.391 33.945C16.7058 34.2332 16.0849 34.6552 15.5648 35.1864C15.0448 35.7177 14.636 36.3474 14.3625 37.0386C14.089 37.7299 13.9563 38.4688 13.9721 39.212C13.9721 39.3459 13.9189 39.4744 13.8242 39.5691C13.7295 39.6638 13.6011 39.717 13.4672 39.717C13.3332 39.717 13.2048 39.6638 13.1101 39.5691C13.0154 39.4744 12.9622 39.3459 12.9622 39.212C12.945 38.3353 13.1029 37.464 13.4266 36.649C13.7502 35.834 14.2331 35.0918 14.8471 34.4657C15.461 33.8396 16.1937 33.3422 17.0022 33.0027C17.8107 32.6632 18.6788 32.4883 19.5556 32.4883C20.4325 32.4883 21.3006 32.6632 22.1091 33.0027C22.9176 33.3422 23.6503 33.8396 24.2642 34.4657C24.8782 35.0918 25.3611 35.834 25.6847 36.649C26.0084 37.464 26.1663 38.3353 26.1491 39.212C26.1491 39.3459 26.0959 39.4744 26.0012 39.5691C25.9065 39.6638 25.7781 39.717 25.6441 39.717Z" fill="#00441F"/>
<path d="M10.3264 27.6284C9.63182 27.6284 8.95281 27.4224 8.37528 27.0365C7.79774 26.6506 7.3476 26.1022 7.08179 25.4604C6.81597 24.8187 6.74643 24.1126 6.88194 23.4313C7.01745 22.7501 7.35193 22.1243 7.84308 21.6331C8.33424 21.142 8.96001 20.8075 9.64127 20.672C10.3225 20.5365 11.0287 20.606 11.6704 20.8718C12.3121 21.1376 12.8606 21.5878 13.2465 22.1653C13.6324 22.7429 13.8384 23.4219 13.8384 24.1165C13.8384 25.0479 13.4684 25.9412 12.8097 26.5998C12.1511 27.2584 11.2578 27.6284 10.3264 27.6284Z" fill="#00CF7B"/>
<path d="M4.23909 36.5207C4.10516 36.5207 3.97673 36.4675 3.88203 36.3728C3.78733 36.2781 3.73413 36.1497 3.73413 36.0158C3.73486 34.7205 4.11701 33.4542 4.83287 32.3747C5.54874 31.2953 6.56664 30.4505 7.75955 29.9459C8.95246 29.4413 10.2676 29.2991 11.5408 29.5371C12.8139 29.7751 13.9889 30.3828 14.9189 31.2844C15.015 31.3778 15.07 31.5055 15.0719 31.6395C15.0738 31.7735 15.0224 31.9028 14.929 31.9989C14.8356 32.095 14.7078 32.15 14.5738 32.1519C14.4398 32.1538 14.3106 32.1024 14.2145 32.009C13.4272 31.2448 12.4323 30.7296 11.3539 30.5276C10.2756 30.3256 9.1616 30.4459 8.15119 30.8734C7.14079 31.3009 6.27876 32.0166 5.67279 32.9312C5.06682 33.8458 4.74378 34.9187 4.74404 36.0158C4.74404 36.1497 4.69084 36.2781 4.59614 36.3728C4.50145 36.4675 4.37301 36.5207 4.23909 36.5207Z" fill="#00441F"/>
<path d="M29.6736 27.6284C30.3682 27.6284 31.0472 27.4224 31.6247 27.0365C32.2023 26.6506 32.6524 26.1022 32.9182 25.4604C33.184 24.8187 33.2536 24.1126 33.1181 23.4313C32.9826 22.7501 32.6481 22.1243 32.1569 21.6331C31.6658 21.142 31.04 20.8075 30.3587 20.672C29.6775 20.5365 28.9713 20.606 28.3296 20.8718C27.6879 21.1376 27.1394 21.5878 26.7535 22.1653C26.3676 22.7429 26.1616 23.4219 26.1616 24.1165C26.1616 25.0479 26.5316 25.9412 27.1903 26.5998C27.8489 27.2584 28.7422 27.6284 29.6736 27.6284Z" fill="#00CF7B"/>
<path d="M35.7635 36.5207C35.6296 36.5207 35.5012 36.4675 35.4065 36.3728C35.3118 36.2781 35.2586 36.1497 35.2586 36.0158C35.2582 34.9187 34.9346 33.846 34.3283 32.9317C33.722 32.0173 32.8598 31.3018 31.8494 30.8744C30.839 30.447 29.725 30.3267 28.6466 30.5285C27.5683 30.7302 26.5732 31.2452 25.7856 32.009C25.7388 32.0587 25.6825 32.0985 25.6199 32.1258C25.5573 32.1531 25.4898 32.1675 25.4215 32.168C25.3532 32.1685 25.2855 32.1551 25.2226 32.1287C25.1596 32.1023 25.1026 32.0634 25.0551 32.0144C25.0076 31.9653 24.9705 31.9071 24.9461 31.8433C24.9217 31.7795 24.9106 31.7115 24.9132 31.6432C24.9159 31.575 24.9324 31.508 24.9617 31.4463C24.991 31.3846 25.0325 31.3295 25.0837 31.2844C26.0138 30.3828 27.1887 29.7751 28.4619 29.5371C29.7351 29.2991 31.0502 29.4413 32.2431 29.9459C33.436 30.4505 34.4539 31.2953 35.1698 32.3747C35.8856 33.4542 36.2678 34.7205 36.2685 36.0158C36.2685 36.1497 36.2153 36.2781 36.1206 36.3728C36.0259 36.4675 35.8975 36.5207 35.7635 36.5207Z" fill="#00441F"/>
</svg>
