<svg width="32"
     height="32"
     viewBox="0 0 32 32"
     fill="none"
     xmlns="http://www.w3.org/2000/svg">
  <path fill-rule="evenodd"
        clip-rule="evenodd"
        d="M9.87736 18.9946L7.83069 9.33325H24.6654C25.5334 9.33325 26.1694 10.1479 25.9587 10.9906L24.1614 18.1799C23.888 19.2719 22.96 20.0746 21.84 20.1866L12.752 21.0959C11.3974 21.2306 10.1587 20.3253 9.87736 18.9946Z"
        stroke="white"
        stroke-width="2"
        stroke-linecap="round"
        stroke-linejoin="round" />
  <path d="M7.83196 9.33325L6.96529 5.33325H4.66663"
        stroke="white"
        stroke-width="2"
        stroke-linecap="round"
        stroke-linejoin="round" />
  <path d="M22.8124 25.6892C22.5431 25.6892 22.3244 25.9078 22.3271 26.1772C22.3271 26.4465 22.5458 26.6652 22.8151 26.6652C23.0844 26.6652 23.3031 26.4465 23.3031 26.1772C23.3018 25.9078 23.0831 25.6892 22.8124 25.6892"
        stroke="white"
        stroke-width="2"
        stroke-linecap="round"
        stroke-linejoin="round" />
  <path d="M11.5969 25.6897C11.3276 25.6897 11.1089 25.9084 11.1116 26.1777C11.1089 26.4484 11.3289 26.6671 11.5983 26.6671C11.8676 26.6671 12.0863 26.4484 12.0863 26.1791C12.0863 25.9084 11.8676 25.6897 11.5969 25.6897"
        stroke="white"
        stroke-width="2"
        stroke-linecap="round"
        stroke-linejoin="round" />
</svg>
