<svg width="40" height="40" viewBox="0 0 40 40" fill="none" xmlns="http://www.w3.org/2000/svg">
<path d="M38.8437 27.5353C38.8135 27.5378 38.7831 27.5378 38.7529 27.5353C38.6875 27.5234 38.6251 27.4988 38.5693 27.4628C38.5135 27.4268 38.4653 27.3801 38.4275 27.3255C38.3898 27.2709 38.3632 27.2093 38.3492 27.1444C38.3353 27.0794 38.3343 27.0124 38.3464 26.947C38.8286 24.3011 38.0181 21.645 35.9428 19.0647C31.4689 13.4925 22.9478 10.3062 22.2181 10.2785L11.8665 10.435C11.7326 10.435 11.6042 10.3818 11.5095 10.2871C11.4148 10.1924 11.3616 10.064 11.3616 9.93005C11.3616 9.79612 11.4148 9.66769 11.5095 9.57299C11.6042 9.47829 11.7326 9.42509 11.8665 9.42509L22.2181 9.26855C23.2634 9.26855 31.8754 12.5912 36.5386 18.1785C38.9574 21.0744 39.9016 24.0839 39.3512 27.1212C39.3296 27.2393 39.2667 27.3458 39.1737 27.4217C39.0807 27.4976 38.9637 27.5379 38.8437 27.5353Z" fill="#00441F"/>
<path d="M24.6468 28.9463H15.5576C15.4703 28.9449 15.3849 28.9209 15.3097 28.8766C15.2345 28.8324 15.172 28.7694 15.1284 28.6938L8.38721 17.8044L1.65364 17.8852C1.51971 17.8852 1.39128 17.832 1.29658 17.7373C1.20188 17.6426 1.14868 17.5142 1.14868 17.3803C1.14868 17.2463 1.20188 17.1179 1.29658 17.0232C1.39128 16.9285 1.51971 16.8753 1.65364 16.8753L7.82671 16.8021C7.8199 16.7368 7.8259 16.6707 7.84438 16.6077L9.8844 9.86402C9.9229 9.73512 10.011 9.62679 10.1294 9.56287C10.2478 9.49895 10.3867 9.48467 10.5156 9.52317C10.6445 9.56168 10.7528 9.64981 10.8167 9.76818C10.8807 9.88655 10.8949 10.0255 10.8564 10.1544L8.87954 16.6834L8.94519 16.7869L34.2889 16.484C34.3856 16.4829 34.4806 16.5097 34.5625 16.561C34.6445 16.6124 34.7099 16.6862 34.7512 16.7737C34.7924 16.8612 34.8076 16.9587 34.795 17.0546C34.7825 17.1505 34.7426 17.2407 34.6802 17.3146L25.0331 28.767C24.9856 28.8232 24.9265 28.8684 24.8597 28.8993C24.793 28.9303 24.7203 28.9463 24.6468 28.9463ZM15.8302 27.9364H24.4145L33.2007 17.509L9.56376 17.7918L15.8302 27.9364Z" fill="#00441F"/>
<path d="M27.9417 19.7687H25.273C25.1391 19.7687 25.0107 19.7155 24.916 19.6208C24.8213 19.5261 24.7681 19.3977 24.7681 19.2637C24.7681 19.1298 24.8213 19.0014 24.916 18.9067C25.0107 18.812 25.1391 18.7588 25.273 18.7588H27.9417C28.0756 18.7588 28.2041 18.812 28.2988 18.9067C28.3935 19.0014 28.4467 19.1298 28.4467 19.2637C28.4467 19.3977 28.3935 19.5261 28.2988 19.6208C28.2041 19.7155 28.0756 19.7687 27.9417 19.7687Z" fill="#00441F"/>
<path d="M29.9109 31.5744H10.1495C10.0156 31.5744 9.88713 31.5212 9.79243 31.4265C9.69773 31.3318 9.64453 31.2033 9.64453 31.0694C9.64453 30.9355 9.69773 30.8071 9.79243 30.7124C9.88713 30.6177 10.0156 30.5645 10.1495 30.5645H29.9109C30.0448 30.5645 30.1733 30.6177 30.268 30.7124C30.3627 30.8071 30.4159 30.9355 30.4159 31.0694C30.4159 31.2033 30.3627 31.3318 30.268 31.4265C30.1733 31.5212 30.0448 31.5744 29.9109 31.5744Z" fill="#00441F"/>
<path d="M39.0886 28.8354C39.0886 29.7682 38.812 30.6801 38.2937 31.4556C37.7755 32.2312 37.0389 32.8357 36.1771 33.1927C35.3153 33.5497 34.3671 33.6431 33.4522 33.4611C32.5373 33.2791 31.697 32.8299 31.0374 32.1703C30.3778 31.5107 29.9286 30.6704 29.7466 29.7555C29.5647 28.8407 29.658 27.8924 30.015 27.0306C30.372 26.1688 30.9765 25.4322 31.7521 24.914C32.5277 24.3957 33.4395 24.1191 34.3723 24.1191C34.9917 24.1188 35.6052 24.2406 36.1775 24.4775C36.7499 24.7144 37.2699 25.0618 37.7079 25.4998C38.146 25.9378 38.4933 26.4578 38.7302 27.0302C38.9671 27.6025 39.0889 28.216 39.0886 28.8354Z" fill="#00CF7B"/>
<path d="M2.56527 31.827C2.51557 31.827 2.46617 31.8194 2.41883 31.8042C-0.565452 30.9105 0.459606 26.4416 1.13877 23.4725C1.31803 22.6999 1.53768 21.7405 1.49729 21.4956C-1.11585 15.4008 5.5546 10.172 6.31203 9.5938C6.39784 9.53068 6.50095 9.49543 6.60743 9.49281L20.779 9.32617C20.9129 9.32617 21.0413 9.37937 21.136 9.47407C21.2307 9.56877 21.2839 9.6972 21.2839 9.83113C21.2839 9.96505 21.2307 10.0935 21.136 10.1882C21.0413 10.2829 20.9129 10.3361 20.779 10.3361L6.77912 10.5002C5.67832 11.3611 0.209654 15.9714 2.43146 21.1244C2.61071 21.5385 2.4668 22.2151 2.12343 23.7073C1.366 26.9895 0.790352 30.2717 2.70918 30.8373C2.82608 30.8713 2.92673 30.9465 2.99258 31.049C3.05842 31.1514 3.08504 31.2742 3.06751 31.3947C3.04999 31.5152 2.98951 31.6253 2.89722 31.7047C2.80493 31.7842 2.68704 31.8276 2.56527 31.827Z" fill="#00441F"/>
<path d="M7.85972 31.8273H2.55769C2.42377 31.8273 2.29533 31.7741 2.20063 31.6794C2.10593 31.5847 2.05273 31.4563 2.05273 31.3223C2.05273 31.1884 2.10593 31.06 2.20063 30.9653C2.29533 30.8706 2.42377 30.8174 2.55769 30.8174H7.85972C7.99364 30.8174 8.12208 30.8706 8.21677 30.9653C8.31147 31.06 8.36467 31.1884 8.36467 31.3223C8.36467 31.4563 8.31147 31.5847 8.21677 31.6794C8.12208 31.7741 7.99364 31.8273 7.85972 31.8273Z" fill="#00441F"/>
<path d="M11.4902 28.8354C11.4902 29.7682 11.2136 30.6801 10.6953 31.4556C10.1771 32.2312 9.44053 32.8357 8.57874 33.1927C7.71695 33.5497 6.76867 33.6431 5.8538 33.4611C4.93893 33.2791 4.09857 32.8299 3.43899 32.1703C2.7794 31.5107 2.33022 30.6704 2.14824 29.7555C1.96626 28.8407 2.05966 27.8924 2.41662 27.0306C2.77359 26.1688 3.37809 25.4322 4.15367 24.914C4.92926 24.3957 5.84111 24.1191 6.7739 24.1191C7.39334 24.1188 8.00678 24.2406 8.57913 24.4775C9.15149 24.7144 9.67154 25.0618 10.1095 25.4998C10.5476 25.9378 10.8949 26.4578 11.1318 27.0302C11.3687 27.6025 11.4905 28.216 11.4902 28.8354Z" fill="#00CF7B"/>
</svg>
