<svg width="40" height="40" viewBox="0 0 40 40" fill="none" xmlns="http://www.w3.org/2000/svg">
<path d="M15.0477 35.7004L12.793 35.5994C12.7267 35.5966 12.6616 35.5808 12.6014 35.5528C12.5412 35.5248 12.4872 35.4852 12.4423 35.4363C12.3974 35.3875 12.3625 35.3302 12.3398 35.2679C12.317 35.2055 12.3067 35.1393 12.3095 35.073C12.3124 35.0067 12.3282 34.9416 12.3562 34.8814C12.3842 34.8212 12.4237 34.7671 12.4726 34.7222C12.5215 34.6773 12.5787 34.6425 12.6411 34.6197C12.7034 34.597 12.7696 34.5867 12.836 34.5895L15.0679 34.6829C20.1856 34.6829 23.3365 33.5316 25.8688 32.6076C27.6488 31.9562 29.1864 31.3957 30.984 31.3275C31.0503 31.325 31.1165 31.3356 31.1787 31.3587C31.2409 31.3818 31.298 31.4169 31.3466 31.462C31.3953 31.5071 31.4346 31.5614 31.4622 31.6217C31.4899 31.682 31.5054 31.7472 31.5079 31.8135C31.5104 31.8798 31.4998 31.946 31.4767 32.0082C31.4536 32.0704 31.4185 32.1275 31.3734 32.1761C31.3283 32.2248 31.274 32.2641 31.2137 32.2917C31.1534 32.3194 31.0882 32.3349 31.0219 32.3374C29.3833 32.4005 27.9164 32.9358 26.2248 33.5569C23.6092 34.5163 20.3648 35.7004 15.0477 35.7004Z" fill="#00441F"/>
<path d="M16.358 22.3849C16.2908 22.385 16.2242 22.3716 16.1622 22.3456C16.1002 22.3196 16.044 22.2814 15.997 22.2334C13.8888 20.0848 14.8558 17.3606 15.1713 16.4668C15.5804 15.308 15.5198 14.5328 15.3254 14.1945C14.982 13.5734 14.3155 12.3338 14.0226 11.7127C13.5451 10.741 13.3305 9.66126 13.4 8.58088C13.4696 7.50049 13.8209 6.45716 14.419 5.55475C15.1587 4.49182 16.1863 3.90859 17.1659 3.99949C18.5167 4.1232 19.1857 5.55222 19.3675 6.84491C19.6604 8.96572 20.5365 10.9906 21.7105 12.2656C22.9729 13.6416 23.9449 14.8712 24.8816 16.0528C25.2528 16.5249 25.6189 16.992 26.0026 17.4641C26.5732 18.1685 27.9644 18.6962 29.9236 18.9512C29.9899 18.9598 30.0539 18.9814 30.1118 19.0148C30.1698 19.0481 30.2206 19.0925 30.2614 19.1455C30.3022 19.1985 30.3322 19.259 30.3496 19.3236C30.367 19.3881 30.3715 19.4555 30.3629 19.5218C30.3543 19.5881 30.3327 19.6521 30.2994 19.71C30.266 19.768 30.2216 19.8188 30.1686 19.8596C30.1156 19.9004 30.0551 19.9304 29.9906 19.9478C29.926 19.9652 29.8586 19.9697 29.7923 19.9611C28.2244 19.7541 26.1592 19.2668 25.22 18.1079C24.8337 17.6307 24.4625 17.1611 24.0889 16.6865C23.1648 15.5125 22.2079 14.298 20.9682 12.9498C19.6604 11.5284 18.6959 9.29899 18.3677 6.98377C18.2389 6.04708 17.787 5.06999 17.0725 5.00435C16.4565 4.94628 15.7773 5.37044 15.2471 6.13292C14.7531 6.88546 14.4642 7.75391 14.4088 8.65238C14.3535 9.55085 14.5336 10.4482 14.9315 11.2557C15.2117 11.8389 15.8657 13.0634 16.209 13.687C16.6079 14.4066 16.5802 15.5049 16.1308 16.7748C15.8025 17.7014 15.0527 19.8197 16.719 21.5189C16.8131 21.6135 16.8659 21.7415 16.8659 21.8749C16.8659 22.0083 16.8131 22.1363 16.719 22.2309C16.6722 22.2794 16.6161 22.318 16.5541 22.3444C16.4921 22.3709 16.4254 22.3846 16.358 22.3849Z" fill="#00441F"/>
<path d="M36.7707 33.075L33.1426 33.1886C32.5966 33.2119 32.0629 33.0221 31.654 32.6594C31.2452 32.2968 30.9932 31.7895 30.9511 31.2446L30.0851 20.1684C30.0628 19.8853 30.0979 19.6007 30.1883 19.3315C30.2787 19.0624 30.4225 18.8143 30.6111 18.6021C30.7997 18.3899 31.0293 18.218 31.286 18.0966C31.5427 17.9753 31.8212 17.9071 32.105 17.8961L35.6624 17.79L36.7707 33.075Z" fill="#00CF7B"/>
<path d="M5.02928 13.056C4.9292 13.0561 4.83135 13.0265 4.74816 12.9708C4.66497 12.9152 4.60019 12.8361 4.56204 12.7436C4.5239 12.651 4.51411 12.5493 4.53391 12.4512C4.55372 12.3531 4.60223 12.263 4.67329 12.1926L6.01647 10.857C6.11122 10.7622 6.23973 10.709 6.37373 10.709C6.50772 10.709 6.63623 10.7622 6.73098 10.857C6.82573 10.9517 6.87896 11.0802 6.87896 11.2142C6.87896 11.3482 6.82573 11.4767 6.73098 11.5715L5.3878 12.9147C5.29169 13.0073 5.16278 13.0582 5.02928 13.056Z" fill="#00441F"/>
<path d="M8.85433 9.23321C8.75403 9.23379 8.65583 9.20449 8.57225 9.14905C8.48867 9.0936 8.4235 9.01453 8.38504 8.9219C8.34658 8.82926 8.33657 8.72728 8.3563 8.62894C8.37603 8.5306 8.4246 8.44037 8.49581 8.36974L9.84656 7.02656C9.89258 6.97595 9.94841 6.93522 10.0106 6.90684C10.0729 6.87846 10.1402 6.86302 10.2086 6.86146C10.277 6.8599 10.345 6.87225 10.4085 6.89776C10.4719 6.92327 10.5296 6.9614 10.5778 7.00986C10.6261 7.05831 10.6641 7.11607 10.6893 7.17963C10.7146 7.24319 10.7267 7.31122 10.7249 7.3796C10.7231 7.44798 10.7074 7.51528 10.6788 7.57741C10.6502 7.63955 10.6093 7.69523 10.5585 7.74107L9.21032 9.0893C9.11524 9.18227 8.98731 9.23399 8.85433 9.23321Z" fill="#00441F"/>
<path d="M10.1975 13.0559C10.0655 13.054 9.93953 13.0006 9.84651 12.907L8.49576 11.5638C8.41662 11.4665 8.37654 11.3432 8.3833 11.2179C8.39007 11.0927 8.44321 10.9745 8.53237 10.8862C8.62154 10.798 8.74034 10.7461 8.86565 10.7407C8.99096 10.7353 9.1138 10.7767 9.21027 10.8568L10.5534 12.2C10.6245 12.2705 10.673 12.3605 10.6928 12.4586C10.7126 12.5567 10.7028 12.6585 10.6647 12.751C10.6265 12.8435 10.5618 12.9226 10.4786 12.9783C10.3954 13.0339 10.2975 13.0636 10.1975 13.0635V13.0559Z" fill="#00441F"/>
<path d="M6.37507 9.23337C6.24121 9.23482 6.11226 9.18306 6.01655 9.08946L4.67337 7.74628C4.62646 7.69937 4.58924 7.64367 4.56385 7.58237C4.53846 7.52107 4.52539 7.45537 4.52539 7.38902C4.52539 7.32268 4.53846 7.25698 4.56385 7.19568C4.58924 7.13438 4.62646 7.07868 4.67337 7.03177C4.72029 6.98485 4.77598 6.94764 4.83728 6.92225C4.89858 6.89686 4.96428 6.88379 5.03063 6.88379C5.09697 6.88379 5.16267 6.89686 5.22397 6.92225C5.28527 6.94764 5.34097 6.98485 5.38788 7.03177L6.73106 8.37495C6.80212 8.44543 6.85063 8.53543 6.87044 8.63353C6.89025 8.73163 6.88045 8.83341 6.84231 8.92594C6.80416 9.01846 6.73938 9.09757 6.65619 9.1532C6.573 9.20884 6.47515 9.2385 6.37507 9.23842V9.23337Z" fill="#00441F"/>
<path d="M9.76081 17.3606C9.62689 17.3673 9.49579 17.3205 9.39636 17.2306C9.29693 17.1406 9.23731 17.0148 9.23061 16.8809C9.22392 16.747 9.27069 16.6159 9.36066 16.5165C9.45062 16.417 9.5764 16.3574 9.71032 16.3507L15.7395 15.7321C15.8734 15.7184 16.0073 15.7584 16.1117 15.8434C16.2161 15.9284 16.2825 16.0514 16.2962 16.1853C16.3099 16.3193 16.2699 16.4531 16.1849 16.5576C16.0999 16.662 15.9769 16.7283 15.843 16.742L9.81383 17.3581L9.76081 17.3606Z" fill="#00441F"/>
<path d="M9.61442 16.2773V17.2873C10.105 17.289 10.5763 17.4789 10.931 17.8178C11.2858 18.1567 11.4971 18.6187 11.5214 19.1087C11.5457 19.5987 11.3811 20.0794 11.0615 20.4517C10.742 20.824 10.2918 21.0595 9.80378 21.1098L6.37008 21.4607C6.30449 21.4645 6.23874 21.4645 6.17315 21.4607C5.6986 21.461 5.24094 21.2846 4.88945 20.9658C4.53795 20.6469 4.31782 20.2086 4.272 19.7363C4.22118 19.2309 4.37284 18.7259 4.69372 18.3322C5.01461 17.9384 5.47853 17.6879 5.98379 17.6357L9.41749 17.2898C9.48308 17.286 9.54883 17.286 9.61442 17.2898V16.2799V16.2773ZM9.61442 16.2799C9.51492 16.2799 9.41548 16.2849 9.3165 16.295L5.8828 16.6384C5.11076 16.7168 4.40148 17.0986 3.91095 17.6999C3.42043 18.3013 3.18885 19.0728 3.26714 19.8448C3.34085 20.5645 3.67874 21.2313 4.2155 21.7162C4.75225 22.2012 5.44975 22.47 6.17315 22.4706C6.27162 22.4706 6.37261 22.4706 6.4736 22.4555L9.90477 22.107C10.6758 22.0292 11.3845 21.6487 11.8753 21.049C12.3662 20.4493 12.5991 19.6794 12.523 18.9082C12.4498 18.1874 12.1119 17.5194 11.5746 17.0334C11.0373 16.5474 10.3389 16.278 9.61442 16.2773V16.2799Z" fill="#00441F"/>
<path d="M11.1493 21.7335C11.5671 21.7332 11.9701 21.888 12.2803 22.1679C12.5905 22.4478 12.7858 22.8328 12.8283 23.2484L12.8762 23.7029C12.9207 24.1494 12.7861 24.5953 12.5021 24.9428C12.2181 25.2902 11.8078 25.5108 11.3614 25.5561L6.14773 26.0837C6.08966 26.0837 6.03159 26.0837 5.97352 26.0837C5.5553 26.0846 5.15166 25.9302 4.84094 25.6502C4.53022 25.3703 4.33459 24.9849 4.29202 24.5689L4.2491 24.1195C4.20467 23.6729 4.33923 23.227 4.62324 22.8795C4.90725 22.5321 5.3175 22.3115 5.76396 22.2663L10.9776 21.7386C11.0365 21.7386 11.0946 21.7386 11.1518 21.7386L11.1493 21.7335ZM11.1518 20.7287C11.0609 20.7287 10.9675 20.7287 10.8766 20.7287L5.65792 21.2639C5.3038 21.2999 4.96026 21.4054 4.64705 21.5745C4.33385 21.7436 4.05715 21.9729 3.83285 22.2493C3.60856 22.5257 3.44109 22.8437 3.34008 23.185C3.23906 23.5263 3.20649 23.8842 3.24424 24.2381L3.28211 24.6724C3.34846 25.3382 3.6598 25.9557 4.15572 26.405C4.65165 26.8543 5.29678 27.1033 5.96594 27.1037C6.05788 27.1037 6.14975 27.0986 6.24114 27.0886L11.4624 26.5609C11.816 26.5262 12.1592 26.422 12.4725 26.2544C12.7858 26.0868 13.063 25.8591 13.2881 25.5842C13.5133 25.3093 13.682 24.9928 13.7846 24.6526C13.8872 24.3125 13.9217 23.9554 13.8862 23.6019L13.8407 23.1525C13.7732 22.4873 13.4615 21.8707 12.9657 21.4221C12.47 20.9735 11.8255 20.7246 11.1569 20.7236L11.1518 20.7287Z" fill="#00441F"/>
<path d="M11.8337 26.2404C12.2521 26.239 12.656 26.3933 12.9669 26.6733C13.2777 26.9533 13.4732 27.339 13.5152 27.7553L13.5607 28.1946C13.6051 28.6417 13.4707 29.0882 13.1868 29.4365C12.9029 29.7847 12.4927 30.0063 12.0458 30.0529L6.81699 30.5932C6.76144 30.5932 6.70085 30.5932 6.6453 30.5932C6.22665 30.5947 5.82239 30.4405 5.51114 30.1605C5.19989 29.8805 5.00389 29.4948 4.96128 29.0783L4.91583 28.6365C4.87136 28.1894 5.00577 27.7429 5.28966 27.3946C5.57355 27.0464 5.98382 26.8248 6.4307 26.7782L11.6595 26.2581C11.7167 26.2581 11.7748 26.2581 11.8337 26.2581V26.2404ZM11.8337 25.2482C11.7428 25.2482 11.6494 25.2482 11.556 25.2482L6.31203 25.7734C5.59865 25.8467 4.94343 26.1999 4.49003 26.7555C4.03663 27.3111 3.82204 28.0239 3.8933 28.7375L3.93874 29.1793C4.00628 29.8456 4.31867 30.4631 4.81541 30.9123C5.31216 31.3615 5.95792 31.6103 6.62763 31.6106C6.7193 31.6156 6.81116 31.6156 6.90283 31.6106L12.1392 31.0804C12.4927 31.0448 12.8357 30.9398 13.1486 30.7715C13.4615 30.6032 13.7382 30.3749 13.9628 30.0996C14.1875 29.8244 14.3556 29.5075 14.4577 29.1672C14.5599 28.8269 14.5939 28.4698 14.5579 28.1164L14.5125 27.6745C14.4456 27.0084 14.1337 26.3909 13.6374 25.9417C13.141 25.4925 12.4956 25.2436 11.8261 25.2432L11.8337 25.2482Z" fill="#00441F"/>
<path d="M11.6343 29.9287V30.9386C12.1296 30.9334 12.6077 31.1201 12.9683 31.4597C13.329 31.7993 13.5441 32.2653 13.5686 32.7601C13.5931 33.2548 13.425 33.7398 13.0997 34.1134C12.7744 34.4869 12.317 34.72 11.8236 34.7637L9.63212 34.9833C9.56653 34.987 9.50078 34.987 9.43519 34.9833C8.94458 34.9815 8.47334 34.7916 8.11857 34.4528C7.76379 34.1139 7.5525 33.6518 7.52823 33.1618C7.50395 32.6718 7.66855 32.1912 7.98809 31.8189C8.30764 31.4466 8.7578 31.2111 9.24583 31.1608L11.4373 30.9386C11.5029 30.9348 11.5687 30.9348 11.6343 30.9386V29.9287ZM11.6343 29.9287C11.5358 29.9287 11.4348 29.9287 11.3338 29.9439L9.14231 30.166C8.75991 30.2045 8.38885 30.3181 8.05036 30.5001C7.71187 30.6821 7.41259 30.9291 7.16965 31.2269C6.92671 31.5248 6.74487 31.8675 6.63454 32.2357C6.52421 32.6039 6.48754 32.9902 6.52665 33.3725C6.59978 34.0933 6.93769 34.7613 7.47497 35.2473C8.01226 35.7332 8.71072 36.0026 9.43519 36.0033C9.53469 36.0032 9.63412 35.9982 9.73311 35.9882L11.9246 35.7685C12.6949 35.6894 13.4026 35.3085 13.8928 34.709C14.3829 34.1095 14.6158 33.3403 14.5403 32.5696C14.4677 31.8491 14.1304 31.1811 13.5935 30.6951C13.0566 30.209 12.3585 29.9395 11.6343 29.9388V29.9287Z" fill="#00441F"/>
</svg>
