<svg width="18" height="19" viewBox="0 0 18 19" fill="none" xmlns="http://www.w3.org/2000/svg">
<path fill-rule="evenodd" clip-rule="evenodd" d="M7.5599 2.67471C8.41026 2.02504 9.58921 2.0251 10.4395 2.67487L11.4928 3.47948L12.8092 3.65473C13.8711 3.79632 14.706 4.63211 14.8466 5.69392C14.8466 5.69394 14.8466 5.6939 14.8466 5.69392L15.0205 7.00586L15.8244 8.05985C15.8244 8.05987 15.8244 8.05983 15.8244 8.05985C16.4729 8.90976 16.4742 10.0887 15.8242 10.9394L15.0187 11.9931L14.8436 13.3083C14.702 14.3702 13.8662 15.2051 12.8043 15.3457L11.4937 15.5193L10.4395 16.3248C10.4395 16.3248 10.4395 16.3247 10.4395 16.3248C9.58917 16.9745 8.41013 16.9746 7.55976 16.3248C7.55974 16.3248 7.55979 16.3248 7.55976 16.3248L6.50629 15.52L5.19064 15.3441C4.12874 15.2025 3.29397 14.3668 3.15336 13.305C3.15335 13.3049 3.15336 13.305 3.15336 13.305L2.97954 11.9933L2.17427 10.9393C1.52527 10.0897 1.52523 8.90995 2.17423 8.06035L2.97982 7.00637L3.15567 5.69122C3.15567 5.69115 3.15566 5.69129 3.15567 5.69122C3.29732 4.6295 4.13297 3.79467 5.1946 3.65397L6.50549 3.47968L7.5599 2.67471ZM7.09648 4.44386C7.01633 4.51288 6.91597 4.56 6.80387 4.57491L5.34287 4.76916C4.7847 4.84306 4.34521 5.28182 4.2708 5.8399L4.07502 7.30411C4.06099 7.40906 4.01872 7.50369 3.9567 7.58106L3.94352 7.59823L3.06823 8.74327C2.72724 9.18966 2.72723 9.8099 3.06819 10.2563C3.06821 10.2563 3.06818 10.2563 3.06819 10.2563L3.96445 11.4293C4.02406 11.5073 4.06221 11.5996 4.07511 11.6969L4.26861 13.1572C4.34251 13.7153 4.78124 14.1546 5.33932 14.229L6.80353 14.4248C6.90061 14.4378 6.99262 14.4759 7.07045 14.5353L8.2427 15.4308C8.68982 15.7725 9.30932 15.7725 9.75644 15.4309L10.9026 14.5552C10.9828 14.486 11.0833 14.4388 11.1956 14.4239L12.6566 14.2304C13.2148 14.1565 13.654 13.7178 13.7284 13.1598C13.7284 13.1598 13.7284 13.1598 13.7284 13.1598L13.9234 11.6958C13.9374 11.5907 13.9797 11.496 14.0418 11.4186L14.0549 11.4014L14.9303 10.2563C15.2717 9.80949 15.2716 9.18986 14.93 8.74227L14.0352 7.56921C13.9758 7.49127 13.9377 7.39914 13.9249 7.30195L13.7314 5.8417C13.6575 5.28354 13.2187 4.84429 12.6606 4.76988L11.196 4.57489C11.0988 4.56195 11.0067 4.52383 10.9288 4.46431L9.75651 3.56881C9.30939 3.22713 8.68989 3.22708 8.24277 3.56876L7.09648 4.44386Z" fill="#00CF7B"/>
<path fill-rule="evenodd" clip-rule="evenodd" d="M10.9721 7.52803C11.1917 7.7477 11.1917 8.10386 10.9721 8.32353L7.82206 11.4735C7.60239 11.6932 7.24624 11.6932 7.02657 11.4735C6.8069 11.2539 6.8069 10.8977 7.02657 10.678L10.1766 7.52803C10.3962 7.30836 10.7524 7.30836 10.9721 7.52803Z" fill="#00CF7B"/>
<circle cx="7.5" cy="8" r="0.75" fill="#00CF7B"/>
<circle cx="10.5" cy="11" r="0.75" fill="#00CF7B"/>
</svg>
