<svg width="32" height="32" viewBox="0 0 32 32" fill="none" xmlns="http://www.w3.org/2000/svg">
<path fill-rule="evenodd" clip-rule="evenodd" d="M10 5C7.23895 5 5 7.23895 5 10V22.0053C5 24.7637 7.23628 27 9.99467 27H22.0053C24.7639 27 27 24.7636 27 22.0067V9.99467C27 7.23628 24.7637 5 22.0053 5H10ZM10 3H22.0053C25.8683 3 29 6.13171 29 9.99467V22.0067C29 25.8684 25.8681 29 22.0053 29H9.99467C6.13171 29 3 25.8683 3 22.0053V10C3 6.13438 6.13438 3 10 3Z" fill="#00CF7B"/>
<path fill-rule="evenodd" clip-rule="evenodd" d="M13.8002 17.2002C13.8002 16.6479 14.2479 16.2002 14.8002 16.2002H22.0002C22.5525 16.2002 23.0002 16.6479 23.0002 17.2002C23.0002 17.7525 22.5525 18.2002 22.0002 18.2002H14.8002C14.2479 18.2002 13.8002 17.7525 13.8002 17.2002Z" fill="#00CF7B"/>
<path fill-rule="evenodd" clip-rule="evenodd" d="M16.1998 14.7402C16.1998 12.2332 18.2329 10.2002 20.7398 10.2002H21.9998C22.5521 10.2002 22.9998 10.6479 22.9998 11.2002C22.9998 11.7525 22.5521 12.2002 21.9998 12.2002H20.7398C19.3374 12.2002 18.1998 13.3378 18.1998 14.7402V28.0002C18.1998 28.5525 17.7521 29.0002 17.1998 29.0002C16.6475 29.0002 16.1998 28.5525 16.1998 28.0002V14.7402Z" fill="#00CF7B"/>
</svg>
