<svg width="131" height="36" viewBox="0 0 131 36" fill="none" xmlns="http://www.w3.org/2000/svg">
<path d="M18.1883 26.8106L17.8178 26.1585L17.8177 26.1585L18.1883 26.8106ZM31.4963 19.2486L31.1261 18.5963L31.1258 18.5965L31.4963 19.2486ZM31.4963 16.7516L31.1258 17.4036L31.1261 17.4038L31.4963 16.7516ZM18.1883 9.18856L17.8177 9.84058L17.8178 9.84062L18.1883 9.18856ZM15.2933 10.4376V25.5616H16.7933V10.4376H15.2933ZM15.2933 25.5616C15.2933 27.2369 17.1013 28.2912 18.559 27.4626L17.8177 26.1585C17.3614 26.4179 16.7933 26.0882 16.7933 25.5616H15.2933ZM18.5589 27.4626L31.8669 19.9006L31.1258 18.5965L17.8178 26.1585L18.5589 27.4626ZM31.8666 19.9008C33.3419 19.0634 33.3419 16.9367 31.8666 16.0993L31.1261 17.4038C31.5887 17.6664 31.5887 18.3337 31.1261 18.5963L31.8666 19.9008ZM31.8669 16.0995L18.5589 8.5365L17.8178 9.84062L31.1258 17.4036L31.8669 16.0995ZM18.559 8.53654C17.1013 7.70794 15.2933 8.76223 15.2933 10.4376H16.7933C16.7933 9.91089 17.3614 9.58118 17.8177 9.84058L18.559 8.53654Z" fill="#00441F"/>
<path fill-rule="evenodd" clip-rule="evenodd" d="M27.3056 13.5169C27.6274 13.7777 27.6769 14.25 27.4161 14.5718L17.2061 27.1718C16.9454 27.4936 16.4731 27.5431 16.1513 27.2823C15.8294 27.0216 15.78 26.5493 16.0407 26.2275L26.2507 13.6275C26.5115 13.3056 26.9838 13.2561 27.3056 13.5169Z" fill="#00441F"/>
<path fill-rule="evenodd" clip-rule="evenodd" d="M16.1513 8.71712C16.4731 8.45635 16.9454 8.50583 17.2061 8.82765L27.4161 21.4277C27.6769 21.7495 27.6274 22.2218 27.3056 22.4825C26.9838 22.7433 26.5115 22.6938 26.2507 22.372L16.0407 9.77201C15.78 9.45019 15.8294 8.9779 16.1513 8.71712Z" fill="#00441F"/>
<path d="M50.0309 15.8542V17.4777H53.834C53.7741 18.2203 53.4641 18.9202 52.955 19.4626C52.5708 19.8468 52.1114 20.147 51.6059 20.3444C51.1003 20.5418 50.5595 20.6321 50.0174 20.6097C48.9418 20.5596 47.9267 20.0957 47.1831 19.3144C46.4396 18.5331 46.0247 17.4944 46.0247 16.4142C46.0247 15.334 46.4396 14.2953 47.1831 13.514C47.9267 12.7327 48.9418 12.2688 50.0174 12.2187C51.0843 12.2016 52.1148 12.6073 52.8852 13.3477L54.0152 12.1792C52.9504 11.1387 51.5174 10.5645 50.0309 10.5827C49.2633 10.5641 48.4996 10.6997 47.785 10.9815C47.0703 11.2633 46.419 11.6856 45.8695 12.2237C45.32 12.7617 44.8833 13.4046 44.5852 14.1145C44.287 14.8244 44.1334 15.5869 44.1334 16.3572C44.1334 17.1275 44.287 17.89 44.5852 18.5999C44.8833 19.3097 45.32 19.9526 45.8695 20.4907C46.419 21.0287 47.0703 21.4511 47.785 21.7329C48.4996 22.0147 49.2633 22.1503 50.0309 22.1316C50.7838 22.1618 51.5346 22.0329 52.2346 21.7532C52.9346 21.4735 53.5681 21.0493 54.094 20.5081C55.0173 19.5079 55.5103 18.183 55.466 16.8206C55.466 16.4928 55.4397 16.1654 55.3872 15.8418L50.0309 15.8542Z" fill="#00441F"/>
<path d="M89.9729 17.0725C89.7131 16.2848 89.1803 15.6166 88.4712 15.1894C87.7622 14.7621 86.9239 14.6041 86.1086 14.744C85.2933 14.8839 84.5551 15.3125 84.0279 15.9519C83.5007 16.5912 83.2196 17.3991 83.2356 18.2287C83.2356 18.2998 83.2356 18.3608 83.2356 18.4319C83.2286 18.9131 83.3163 19.391 83.4936 19.8382C83.6708 20.2854 83.9343 20.6932 84.2688 21.0382C84.6033 21.3831 85.0023 21.6586 85.443 21.8488C85.8838 22.0389 86.3575 22.1401 86.8373 22.1464H86.9599C87.5761 22.1537 88.1843 22.0067 88.7295 21.7187C89.2747 21.4307 89.7396 21.0107 90.0821 20.4969L88.8024 19.6117C88.609 19.9279 88.3371 20.1883 88.0134 20.3676C87.6897 20.5468 87.3252 20.6389 86.9554 20.6346C86.5801 20.6545 86.2072 20.5631 85.8834 20.3718C85.5595 20.1804 85.299 19.8976 85.1344 19.5587L90.1474 17.4767L89.9729 17.0725ZM84.8631 18.3608C84.8465 18.0922 84.8828 17.823 84.97 17.5685C85.0572 17.3141 85.1936 17.0794 85.3713 16.8778C85.549 16.6763 85.7646 16.5118 86.0057 16.3939C86.2468 16.2761 86.5087 16.207 86.7765 16.1908C87.061 16.1721 87.3447 16.2368 87.5932 16.3772C87.8416 16.5175 88.0439 16.7274 88.1755 16.9811L84.8631 18.3608Z" fill="#00441F"/>
<path d="M117.036 14.9287L115.146 19.6706H115.093L113.131 14.9287H111.364L114.301 21.546L112.621 25.2334H114.345L118.867 14.9287H117.036Z" fill="#00441F"/>
<path d="M103.86 10.9951H102.215V21.9174H103.86V10.9951Z" fill="#00441F"/>
<path d="M82.4262 10.9951H80.7819V21.9174H82.4262V10.9951Z" fill="#00441F"/>
<path d="M97.6933 10.9911H93.7428V21.8873H95.3872V17.7404H97.6933C98.1433 17.7731 98.5952 17.7153 99.0226 17.5704C99.45 17.4255 99.8442 17.1963 100.182 16.8965C100.52 16.5966 100.795 16.232 100.99 15.8242C101.186 15.4163 101.298 14.9734 101.321 14.5214C101.343 14.0694 101.275 13.6175 101.121 13.1921C100.967 12.7668 100.73 12.3766 100.424 12.0445C100.117 11.7123 99.7476 11.445 99.3368 11.258C98.9259 11.0711 98.4819 10.9685 98.031 10.9561H97.6933V10.9911ZM97.6933 16.2851H95.3872V12.5085H97.735C98.2306 12.4745 98.7195 12.6394 99.0939 12.967C99.4683 13.2945 99.6977 13.7579 99.7316 14.2551C99.7655 14.7523 99.6011 15.2427 99.2746 15.6183C98.948 15.9939 98.4861 16.224 97.9905 16.258H97.735L97.6933 16.2851Z" fill="#00441F"/>
<path d="M78.0993 15.5364H78.0464C77.7939 15.2679 77.4883 15.0554 77.1491 14.9125C76.8099 14.7696 76.4446 14.6995 76.0768 14.7065C75.1322 14.7638 74.245 15.1805 73.5964 15.8717C72.9477 16.5628 72.5865 17.4763 72.5865 18.4256C72.5865 19.3748 72.9477 20.2883 73.5964 20.9795C74.245 21.6706 75.1322 22.0874 76.0768 22.1446C76.4494 22.1509 76.8188 22.0752 77.1591 21.9229C77.4994 21.7705 77.8022 21.5452 78.0464 21.2628H78.0993V21.8014C78.1393 22.0822 78.1167 22.3684 78.0333 22.6394C77.9498 22.9105 77.8075 23.1596 77.6165 23.3688C77.4256 23.578 77.1908 23.7422 76.929 23.8495C76.6673 23.9569 76.3851 24.0046 76.1027 23.9894C75.6911 23.9816 75.2912 23.8506 74.9543 23.6132C74.6174 23.3758 74.3589 23.0429 74.2119 22.6572L72.8219 23.2488C73.0981 23.8921 73.5559 24.4403 74.1388 24.8259C74.7218 25.2115 75.4044 25.4176 76.1027 25.4188C78.0374 25.4188 79.621 24.2898 79.621 21.5451V14.9369H78.0993V15.5364ZM76.2175 20.6802C75.6445 20.6462 75.1062 20.3939 74.7125 19.9749C74.3189 19.5559 74.0996 19.0019 74.0996 18.4261C74.0996 17.8504 74.3189 17.2964 74.7125 16.8774C75.1062 16.4584 75.6445 16.2061 76.2175 16.172C76.4929 16.1835 76.7633 16.2494 77.0132 16.3659C77.2632 16.4825 77.4877 16.6474 77.6739 16.8512C77.8602 17.0551 78.0045 17.2938 78.0985 17.5537C78.1926 17.8136 78.2345 18.0895 78.222 18.3657V18.4369C78.266 18.9838 78.093 19.5261 77.7406 19.9458C77.3883 20.3654 76.8849 20.6286 76.3402 20.678H76.2614L76.2175 20.6802Z" fill="#00441F"/>
<path d="M68.0094 14.7061C67.0328 14.7223 66.1021 15.1249 65.42 15.8263C64.738 16.5277 64.3598 17.471 64.3679 18.4508C64.376 19.4306 64.7697 20.3675 65.4632 21.0575C66.1568 21.7474 67.094 22.1346 68.0707 22.1346C69.0475 22.1346 69.9847 21.7474 70.6782 21.0575C71.3717 20.3675 71.7654 19.4306 71.7735 18.4508C71.7816 17.471 71.4035 16.5277 70.7214 15.8263C70.0394 15.1249 69.1087 14.7223 68.1321 14.7061H68.0094ZM68.0094 20.6786C67.5655 20.7047 67.1238 20.5983 66.7402 20.3729C66.3565 20.1474 66.0479 19.8131 65.8535 19.4119C65.659 19.0108 65.5874 18.5609 65.6475 18.1189C65.7077 17.677 65.897 17.2628 66.1915 16.9287C66.4861 16.5945 66.8727 16.3553 67.3026 16.2414C67.7324 16.1274 68.1864 16.1436 68.607 16.2881C69.0277 16.4326 69.3963 16.6989 69.6663 17.0532C69.9363 17.4076 70.0957 17.8343 70.1242 18.2794V18.4296C70.1455 19.003 69.9396 19.5615 69.5515 19.9829C69.1634 20.4044 68.6247 20.6546 68.0533 20.6786H68.0094Z" fill="#00441F"/>
<path d="M59.7945 14.7061C58.8179 14.7223 57.8872 15.1249 57.2052 15.8263C56.5231 16.5277 56.145 17.471 56.1531 18.4508C56.1612 19.4306 56.5549 20.3675 57.2484 21.0575C57.9419 21.7474 58.8791 22.1346 59.8559 22.1346C60.8326 22.1346 61.7698 21.7474 62.4634 21.0575C63.1569 20.3675 63.5506 19.4306 63.5587 18.4508C63.5668 17.471 63.1886 16.5277 62.5066 15.8263C61.8245 15.1249 60.8938 14.7223 59.9172 14.7061H59.7945ZM59.7945 20.6786C59.3504 20.7039 58.9088 20.5966 58.5254 20.3703C58.142 20.144 57.8341 19.8089 57.6404 19.4071C57.4468 19.0054 57.3762 18.5551 57.4374 18.1132C57.4987 17.6712 57.6891 17.2574 57.9847 16.9239C58.2802 16.5904 58.6677 16.3522 59.0981 16.2394C59.5285 16.1267 59.9825 16.1443 60.4029 16.2902C60.8233 16.4361 61.1912 16.7036 61.4601 17.0591C61.729 17.4145 61.8869 17.8419 61.9139 18.2873V18.4285C61.9355 19.0013 61.7304 19.5594 61.3432 19.981C60.956 20.4026 60.4183 20.6534 59.8474 20.6786H59.7945Z" fill="#00441F"/>
<path d="M107.895 14.6879C107.298 14.6529 106.704 14.7927 106.184 15.0903C105.665 15.388 105.242 15.8307 104.969 16.3645L106.432 16.964C106.618 16.657 106.892 16.4141 107.219 16.2676C107.546 16.1211 107.909 16.078 108.261 16.1442C108.612 16.2103 108.936 16.3824 109.187 16.6377C109.439 16.8929 109.607 17.219 109.669 17.5726V17.6855C109.128 17.3965 108.523 17.2508 107.91 17.2621C106.344 17.2621 104.735 18.1439 104.735 19.7143C104.769 20.3836 105.066 21.0121 105.56 21.4631C106.054 21.9141 106.706 22.1511 107.373 22.1226H107.435C107.849 22.1489 108.262 22.0638 108.631 21.876C109.001 21.6882 109.314 21.4045 109.538 21.0545H109.599V21.9363H111.183V17.7137C111.247 15.7729 109.76 14.6879 107.895 14.6879ZM107.702 20.6785C107.165 20.6785 106.409 20.4143 106.409 19.7516C106.409 18.8698 107.35 18.5785 108.168 18.5785C108.693 18.567 109.211 18.6947 109.671 18.9489C109.608 19.4276 109.373 19.8668 109.011 20.1849C108.648 20.503 108.183 20.6784 107.702 20.6785Z" fill="#00441F"/>
<rect x="0.633423" y="0.5" width="129.733" height="35" rx="4.5" stroke="#00441F"/>
</svg>
