<svg width="25" height="20" viewBox="0 0 25 20" fill="none" xmlns="http://www.w3.org/2000/svg">
<path d="M21.2963 10.0556C21.2963 9.28888 20.6742 8.66675 19.9074 8.66675H1.38889C0.62213 8.66675 0 9.28888 0 10.0556C0 10.8224 0.62213 11.4445 1.38889 11.4445H19.9074C20.6742 11.4445 21.2963 10.8224 21.2963 10.0556Z" fill="#00441F"/>
<path d="M1.38889 17C0.62213 17 0 17.6221 0 18.3889C0 19.1556 0.62213 19.7778 1.38889 19.7778H16.2037C16.9705 19.7778 17.5926 19.1556 17.5926 18.3889C17.5926 17.6221 16.9705 17 16.2037 17H1.38889Z" fill="#00441F"/>
<path d="M25 1.72226C25 0.955504 24.3779 0.333374 23.6111 0.333374H1.38889C0.62213 0.333374 0 0.955504 0 1.72226C0 2.48902 0.62213 3.11115 1.38889 3.11115H23.6111C24.3779 3.11115 25 2.48902 25 1.72226Z" fill="#00441F"/>
</svg>
