<svg width="32" height="32" viewBox="0 0 32 32" fill="none" xmlns="http://www.w3.org/2000/svg">
<path fill-rule="evenodd" clip-rule="evenodd" d="M9.99467 5C7.2351 5 5 7.23614 5 9.99467V22.0053C5 24.7649 7.23614 27 9.99467 27H22.0053C24.765 27 27 24.7637 27 22.0067V9.99467C27 7.23495 24.7637 5 22.0067 5H9.99467ZM9.99467 3H22.0067C25.8683 3 29 6.13038 29 9.99467V22.0067C29 25.8683 25.8696 29 22.0053 29H9.99467C6.13186 29 3 25.8698 3 22.0053V9.99467C3 6.13186 6.13024 3 9.99467 3Z" fill="#00CF7B"/>
<path fill-rule="evenodd" clip-rule="evenodd" d="M18.687 13.313C17.203 11.829 14.797 11.829 13.313 13.313C11.829 14.797 11.829 17.203 13.313 18.687C14.797 20.171 17.203 20.171 18.687 18.687C20.171 17.203 20.171 14.797 18.687 13.313ZM20.1012 11.8988C17.8362 9.63374 14.1638 9.63374 11.8988 11.8988C9.63376 14.1638 9.63376 17.8362 11.8988 20.1012C14.1638 22.3663 17.8362 22.3663 20.1012 20.1012C22.3663 17.8362 22.3663 14.1638 20.1012 11.8988Z" fill="#00CF7B"/>
<path d="M24 9.33333C24 10.0697 23.403 10.6667 22.6667 10.6667C21.9303 10.6667 21.3333 10.0697 21.3333 9.33333C21.3333 8.59695 21.9303 8 22.6667 8C23.403 8 24 8.59695 24 9.33333Z" fill="#00CF7B"/>
</svg>
