<svg width="32" height="32" viewBox="0 0 32 32" fill="none" xmlns="http://www.w3.org/2000/svg">
<path fill-rule="evenodd" clip-rule="evenodd" d="M10 5C7.23895 5 5 7.23895 5 10V22.0053C5 24.7637 7.23628 27 9.99467 27H22.0053C24.7639 27 27 24.7636 27 22.0067V9.99467C27 7.23628 24.7637 5 22.0053 5H10ZM10 3H22.0053C25.8683 3 29 6.13171 29 9.99467V22.0067C29 25.8684 25.8681 29 22.0053 29H9.99467C6.13171 29 3 25.8683 3 22.0053V10C3 6.13438 6.13438 3 10 3Z" fill="#00CF7B"/>
<path fill-rule="evenodd" clip-rule="evenodd" d="M10.8267 13.8C11.379 13.8 11.8267 14.2477 11.8267 14.8V22C11.8267 22.5523 11.379 23 10.8267 23C10.2744 23 9.82667 22.5523 9.82667 22V14.8C9.82667 14.2477 10.2744 13.8 10.8267 13.8Z" fill="#00CF7B"/>
<path fill-rule="evenodd" clip-rule="evenodd" d="M18.6253 15.8C17.5203 15.8 16.6253 16.695 16.6253 17.8V22C16.6253 22.5523 16.1776 23 15.6253 23C15.073 23 14.6253 22.5523 14.6253 22V17.8C14.6253 15.5904 16.4157 13.8 18.6253 13.8C20.835 13.8 22.6253 15.5904 22.6253 17.8V22C22.6253 22.5523 22.1776 23 21.6253 23C21.073 23 20.6253 22.5523 20.6253 22V17.8C20.6253 16.695 19.7304 15.8 18.6253 15.8Z" fill="#00CF7B"/>
<path fill-rule="evenodd" clip-rule="evenodd" d="M9.52534 10.7547C9.5217 10.0311 10.1093 9.45067 10.824 9.45067C11.5372 9.45067 12.1253 10.0259 12.1253 10.7507C12.1253 11.4683 11.543 12.0507 10.8253 12.0507C10.1091 12.0507 9.52752 11.4705 9.52534 10.7547Z" fill="#00CF7B"/>
</svg>
