<svg width="24" height="24" viewBox="0 0 24 24" fill="none" xmlns="http://www.w3.org/2000/svg">
<path fill-rule="evenodd" clip-rule="evenodd" d="M7.14095 18.579C8.48947 19.6287 10.164 20.25 11.977 20.25C13.8109 20.25 15.5057 19.6138 16.859 18.542C15.5105 17.4923 13.836 16.871 12.023 16.871C10.1891 16.871 8.49434 17.5072 7.14095 18.579ZM5.47726 18.0462C7.17849 16.3927 9.48621 15.371 12.023 15.371C14.5351 15.371 16.8176 16.3723 18.5177 17.9944C18.6652 18.1351 18.749 18.3297 18.75 18.5335C18.7509 18.7373 18.6689 18.9328 18.5227 19.0748C16.8215 20.7283 14.5138 21.75 11.977 21.75C9.4649 21.75 7.18239 20.7487 5.48227 19.1266C5.3348 18.9859 5.25095 18.7913 5.25001 18.5875C5.24906 18.3837 5.33111 18.1882 5.47726 18.0462Z" fill="#00441F"/>
<path fill-rule="evenodd" clip-rule="evenodd" d="M12 3.75C7.44021 3.75 3.75 7.44021 3.75 12C3.75 13.3239 4.08241 14.5683 4.64516 15.6883C4.83113 16.0584 4.68185 16.5092 4.31173 16.6952C3.94162 16.8811 3.49082 16.7319 3.30484 16.3617C2.64759 15.0537 2.25 13.5801 2.25 12C2.25 6.61179 6.61179 2.25 12 2.25C17.3882 2.25 21.75 6.61179 21.75 12C21.75 13.5774 21.3547 15.0528 20.6922 16.3617C20.5051 16.7313 20.0539 16.8792 19.6843 16.6922C19.3147 16.5051 19.1668 16.0538 19.3538 15.6843C19.9193 14.5672 20.25 13.3226 20.25 12C20.25 7.44021 16.5598 3.75 12 3.75Z" fill="#00441F"/>
<path fill-rule="evenodd" clip-rule="evenodd" d="M13.591 8.40901C12.7123 7.53033 11.2877 7.53033 10.409 8.40901C9.53031 9.28769 9.53031 10.7123 10.409 11.591C11.2877 12.4697 12.7123 12.4697 13.591 11.591C14.4696 10.7123 14.4696 9.28769 13.591 8.40901ZM14.6516 7.34835C13.1872 5.88389 10.8128 5.88389 9.34833 7.34835C7.88387 8.81281 7.88387 11.1872 9.34833 12.6516C10.8128 14.1161 13.1872 14.1161 14.6516 12.6516C16.1161 11.1872 16.1161 8.81281 14.6516 7.34835Z" fill="#00441F"/>
</svg>
