<svg width="25" height="24" viewBox="0 0 25 24" fill="none" xmlns="http://www.w3.org/2000/svg">
<g clip-path="url(#clip0)">
<path d="M17.9957 14.3072L17.9865 14.3822C15.7261 13.2862 15.4896 13.1402 15.1977 13.5662C14.9952 13.8612 14.4052 14.5302 14.2274 14.7282C14.0475 14.9232 13.8686 14.9382 13.5633 14.8032C13.2549 14.6532 12.2651 14.3382 11.0932 13.3182C10.1804 12.5232 9.56779 11.5482 9.38687 11.2482C9.08569 10.7422 9.71581 10.6702 10.2894 9.61417C10.3922 9.40417 10.3398 9.23917 10.2637 9.09017C10.1866 8.94017 9.57293 7.47017 9.31594 6.88417C9.06924 6.30017 8.81535 6.37417 8.62518 6.37417C8.0331 6.32417 7.60034 6.33217 7.21899 6.71817C5.55992 8.49217 5.97828 10.3222 7.39784 12.2682C10.1876 15.8202 11.674 16.4742 14.3918 17.3822C15.1258 17.6092 15.7949 17.5772 16.3243 17.5032C16.9143 17.4122 18.1406 16.7822 18.3966 16.0772C18.6587 15.3722 18.6587 14.7872 18.5816 14.6522C18.5056 14.5172 18.3041 14.4422 17.9957 14.3072V14.3072Z" fill="white"/>
<path d="M21.0929 3.44821C13.1893 -3.98479 0.10896 1.40621 0.10382 11.8922C0.10382 13.9882 0.668149 16.0322 1.74335 17.8372L0 23.9992L6.51188 22.3472C14.6376 26.6172 24.666 20.9472 24.6701 11.8982C24.6701 8.72221 23.3955 5.73321 21.0775 3.48721L21.0929 3.44821ZM22.6163 11.8652C22.6102 19.4982 13.9972 24.2652 7.18517 20.3692L6.81512 20.1552L2.96041 21.1302L3.99347 17.4852L3.7478 17.1102C-0.491347 10.5452 4.37894 1.96521 12.4091 1.96521C15.1372 1.96521 17.6977 3.00021 19.6261 4.87521C21.5535 6.73421 22.6163 9.22521 22.6163 11.8652V11.8652Z" fill="white"/>
</g>
<defs>
<clipPath id="clip0">
<rect width="24.6701" height="24" fill="white"/>
</clipPath>
</defs>
</svg>
