<svg width="32" height="32" viewBox="0 0 32 32" fill="none" xmlns="http://www.w3.org/2000/svg">
<path d="M15.9999 27.8671C15.0666 27.8671 7.46661 27.8671 5.33328 27.2005C3.86661 26.6671 2.66661 25.3338 2.26661 23.7338C1.73328 21.2005 1.73328 16.2671 1.73328 16.0005C1.73328 15.7338 1.73328 10.8005 2.26661 8.26712C2.66661 6.53379 3.86661 5.20046 5.33328 4.80046C7.46661 4.13379 15.1999 4.13379 15.9999 4.13379C16.9333 4.13379 24.5333 4.13379 26.6666 4.80046C28.1333 5.33379 29.3333 6.66712 29.7333 8.26712C30.2666 10.8005 30.2666 15.7338 30.2666 16.0005C30.2666 16.2671 30.2666 21.2005 29.7333 23.7338C29.3333 25.4671 28.1333 26.8005 26.6666 27.2005C24.5333 27.8671 16.9333 27.8671 15.9999 27.8671ZM15.9999 6.13379C13.7333 6.13379 7.46661 6.26712 5.86661 6.80046C5.06661 6.93379 4.39994 7.73379 4.13328 8.66712C3.73328 11.0671 3.73328 16.0005 3.73328 16.0005C3.73328 16.0005 3.73328 20.9338 4.26661 23.3338C4.53328 24.2671 5.19994 25.0671 5.99994 25.3338C7.59994 25.8671 13.8666 26.0005 16.1333 26.0005C18.3999 26.0005 24.6666 25.8671 26.2666 25.3338C27.0666 25.0671 27.7333 24.2671 27.9999 23.3338C28.5333 21.0671 28.5333 16.1338 28.5333 16.0005C28.5333 15.8671 28.5333 11.0671 27.9999 8.66712C27.7333 7.73379 27.0666 6.93379 26.2666 6.66712C24.5333 6.13379 18.2666 6.13379 15.9999 6.13379Z" fill="#00CF7B"/>
<path fill-rule="evenodd" clip-rule="evenodd" d="M12.7999 11.2005C13.0666 11.0671 13.4666 11.0671 13.7333 11.2005L20.6666 15.2005C20.9333 15.3338 21.1999 15.7338 21.1999 16.0005C21.1999 16.2671 21.0666 16.6671 20.6666 16.8005L13.7333 20.8005C13.4666 20.9338 13.0666 20.9338 12.7999 20.8005C12.5333 20.6671 12.3999 20.4005 12.3999 20.0005V12.0005C12.3999 11.6005 12.5333 11.3338 12.7999 11.2005ZM14.3999 13.7338V18.2671L18.2666 16.0005L14.3999 13.7338Z" fill="#00CF7B"/>
</svg>
