<svg width="140" height="33" viewBox="0 0 140 33" fill="none" xmlns="http://www.w3.org/2000/svg">
<path d="M41.0813 10.7054L41.0764 11.4775H36.7614V4.47475H41.0764V5.24686H37.7094V7.57298H40.4362V8.31578H37.7094V10.7054H41.0813ZM45.7887 5.56939C45.7594 5.61826 45.7268 5.65573 45.691 5.68179C45.6584 5.7046 45.6177 5.716 45.5688 5.716C45.5134 5.716 45.4483 5.68831 45.3733 5.63292C45.2984 5.57754 45.2039 5.51727 45.0899 5.45211C44.9791 5.3837 44.8439 5.3218 44.6843 5.26641C44.5279 5.21103 44.3373 5.18334 44.1126 5.18334C43.9008 5.18334 43.7135 5.21266 43.5506 5.2713C43.3909 5.32668 43.2557 5.40324 43.145 5.50098C43.0375 5.59871 42.956 5.71437 42.9006 5.84794C42.8452 5.97826 42.8176 6.11997 42.8176 6.27309C42.8176 6.46857 42.8648 6.63146 42.9593 6.76177C43.057 6.88883 43.1841 6.99797 43.3404 7.08919C43.5001 7.18041 43.6793 7.26023 43.878 7.32864C44.08 7.3938 44.2852 7.46222 44.4937 7.53389C44.7055 7.60556 44.9107 7.68701 45.1095 7.77823C45.3114 7.86619 45.4906 7.97859 45.647 8.11542C45.8066 8.25225 45.9337 8.42003 46.0282 8.61876C46.1259 8.81749 46.1748 9.06183 46.1748 9.35178C46.1748 9.65802 46.1227 9.94634 46.0184 10.2167C45.9142 10.4839 45.761 10.7168 45.559 10.9156C45.3603 11.1143 45.1143 11.2707 44.8211 11.3847C44.5312 11.4987 44.2005 11.5557 43.8291 11.5557C43.373 11.5557 42.9593 11.4743 42.5879 11.3114C42.2165 11.1452 41.8988 10.9221 41.6349 10.6419L41.9086 10.1923C41.9347 10.1565 41.9656 10.1272 42.0015 10.1043C42.0405 10.0783 42.0829 10.0653 42.1285 10.0653C42.1709 10.0653 42.2181 10.0832 42.2702 10.119C42.3256 10.1516 42.3875 10.1939 42.4559 10.2461C42.5243 10.2982 42.6025 10.3552 42.6905 10.4171C42.7785 10.479 42.8778 10.536 42.9886 10.5881C43.1026 10.6403 43.2313 10.6842 43.3746 10.7201C43.518 10.7527 43.6793 10.769 43.8584 10.769C44.0832 10.769 44.2836 10.738 44.4595 10.6761C44.6354 10.6142 44.7837 10.5279 44.9042 10.4171C45.028 10.3031 45.1225 10.1679 45.1876 10.0115C45.2528 9.85512 45.2854 9.68082 45.2854 9.48861C45.2854 9.27685 45.2365 9.10418 45.1388 8.97061C45.0443 8.83378 44.9189 8.71975 44.7625 8.62853C44.6061 8.53731 44.4269 8.46075 44.2249 8.39885C44.023 8.3337 43.8177 8.26854 43.6092 8.20338C43.4007 8.13497 43.1955 8.05678 42.9935 7.96881C42.7915 7.88085 42.6123 7.76683 42.4559 7.62674C42.2995 7.48665 42.1725 7.31235 42.0748 7.10385C41.9803 6.89209 41.933 6.63146 41.933 6.32196C41.933 6.07436 41.9803 5.83491 42.0748 5.6036C42.1725 5.37229 42.3126 5.16705 42.495 4.98786C42.6807 4.80868 42.9071 4.66534 43.1743 4.55783C43.4447 4.45032 43.7542 4.39656 44.1028 4.39656C44.4937 4.39656 44.8488 4.45846 45.1681 4.58226C45.4906 4.70606 45.7741 4.88524 46.0184 5.11981L45.7887 5.56939ZM52.0533 5.2713H49.7858V11.4775H48.8427V5.2713H46.5703V4.47475H52.0533V5.2713ZM57.2169 10.7054L57.212 11.4775H52.897V4.47475H57.212V5.24686H53.845V7.57298H56.5718V8.31578H53.845V10.7054H57.2169ZM64.0419 8.87776L62.9423 6.02875C62.9097 5.94405 62.8755 5.84631 62.8397 5.73555C62.8039 5.62152 62.7697 5.50098 62.7371 5.37392C62.6687 5.63781 62.5986 5.85771 62.5269 6.03364L61.4274 8.87776H64.0419ZM66.0161 11.4775H65.2831C65.1984 11.4775 65.13 11.4564 65.0779 11.414C65.0257 11.3717 64.9866 11.3179 64.9606 11.2527L64.3057 9.56191H61.1635L60.5087 11.2527C60.4891 11.3114 60.4517 11.3635 60.3963 11.4091C60.3409 11.4547 60.2725 11.4775 60.1911 11.4775H59.458L62.2582 4.47475H63.216L66.0161 11.4775ZM74.0281 4.47475V11.4775H73.1974V6.33173C73.1974 6.26332 73.199 6.19002 73.2022 6.11183C73.2088 6.03364 73.2153 5.95382 73.2218 5.87238L70.8175 10.251C70.7426 10.3976 70.6285 10.4709 70.4754 10.4709H70.3386C70.1855 10.4709 70.0714 10.3976 69.9965 10.251L67.5433 5.85283C67.5629 6.0255 67.5726 6.18513 67.5726 6.33173V11.4775H66.7419V4.47475H67.4407C67.5254 4.47475 67.5906 4.48289 67.6362 4.49918C67.6818 4.51547 67.7258 4.56108 67.7681 4.63601L70.1871 8.94617C70.2262 9.02436 70.2636 9.10581 70.2995 9.19052C70.3386 9.27522 70.3744 9.36155 70.407 9.44952C70.4396 9.36155 70.4738 9.27522 70.5096 9.19052C70.5454 9.10255 70.5845 9.01948 70.6269 8.94129L73.0019 4.63601C73.041 4.56108 73.0833 4.51547 73.1289 4.49918C73.1778 4.48289 73.2446 4.47475 73.3293 4.47475H74.0281ZM78.0813 10.725C78.3517 10.725 78.5847 10.694 78.7801 10.6321C78.9756 10.5702 79.1353 10.4839 79.2591 10.3731C79.3861 10.2591 79.479 10.1255 79.5376 9.9724C79.5962 9.81603 79.6256 9.64499 79.6256 9.45929C79.6256 9.09767 79.4969 8.8126 79.2395 8.6041C78.9821 8.39234 78.5961 8.28646 78.0813 8.28646H76.5664V10.725H78.0813ZM76.5664 5.22243V7.61208H77.8174C78.0846 7.61208 78.3159 7.58276 78.5114 7.52412C78.7101 7.46547 78.873 7.38403 79.0001 7.27978C79.1304 7.17552 79.2265 7.0501 79.2884 6.90349C79.3503 6.75363 79.3812 6.59074 79.3812 6.41481C79.3812 6.00106 79.2574 5.69971 79.0098 5.51075C78.7622 5.31854 78.3778 5.22243 77.8565 5.22243H76.5664ZM77.8565 4.47475C78.2866 4.47475 78.6563 4.5171 78.9658 4.60181C79.2786 4.68651 79.5343 4.80705 79.7331 4.96343C79.9351 5.11981 80.0833 5.31202 80.1778 5.54007C80.2722 5.76487 80.3195 6.01898 80.3195 6.30241C80.3195 6.47508 80.2918 6.64123 80.2364 6.80087C80.1843 6.95725 80.1045 7.10385 79.997 7.24068C79.8894 7.37751 79.7526 7.50131 79.5865 7.61208C79.4236 7.71959 79.2314 7.80755 79.0098 7.87596C79.5246 7.9737 79.9106 8.15777 80.168 8.42817C80.4286 8.69532 80.5589 9.04717 80.5589 9.48372C80.5589 9.78019 80.5036 10.0506 80.3928 10.2949C80.2853 10.5393 80.1256 10.7494 79.9139 10.9253C79.7054 11.1013 79.448 11.2381 79.1418 11.3358C78.8355 11.4303 78.4869 11.4775 78.096 11.4775H75.6233V4.47475H77.8565ZM82.6943 11.4775H81.7463V4.47475H82.6943V11.4775ZM88.61 10.7054L88.6051 11.4775H84.2901V4.47475H88.6051V5.24686H85.2381V7.57298H87.965V8.31578H85.2381V10.7054H88.61ZM95.409 4.47475V11.4775H94.935C94.8601 11.4775 94.7965 11.4645 94.7444 11.4384C94.6955 11.4124 94.6467 11.3684 94.5978 11.3065L90.5467 6.02875C90.5532 6.1102 90.5581 6.19002 90.5613 6.26821C90.5646 6.3464 90.5662 6.4197 90.5662 6.48811V11.4775H89.7354V4.47475H90.2241C90.2665 4.47475 90.3023 4.47801 90.3316 4.48452C90.361 4.48778 90.387 4.49593 90.4098 4.50896C90.4326 4.51873 90.4554 4.53502 90.4782 4.55783C90.501 4.57737 90.5255 4.60344 90.5515 4.63601L94.6027 9.90888C94.5962 9.82417 94.5897 9.74272 94.5832 9.66453C94.5799 9.58309 94.5783 9.50653 94.5783 9.43486V4.47475H95.409ZM101.739 5.2713H99.4716V11.4775H98.5285V5.2713H96.2561V4.47475H101.739V5.2713ZM106.903 10.7054L106.898 11.4775H102.583V4.47475H106.898V5.24686H103.531V7.57298H106.258V8.31578H103.531V10.7054H106.903ZM114.653 10.7054L114.648 11.4775H110.333V4.47475H114.648V5.24686H111.281V7.57298H114.008V8.31578H111.281V10.7054H114.653ZM114.399 2.42718L112.806 3.8248C112.757 3.87042 112.71 3.89811 112.664 3.90788C112.619 3.91765 112.563 3.92254 112.498 3.92254H111.873L113.002 2.58356C113.057 2.51188 113.112 2.4679 113.168 2.45161C113.226 2.43532 113.309 2.42718 113.417 2.42718H114.399ZM43.0323 25.1968V26.4775H37.494V25.1968H39.5224V19.3607C39.5224 19.13 39.5293 18.8923 39.5432 18.6477L38.1032 19.8523C38.0201 19.9169 37.937 19.9584 37.854 19.9769C37.7755 19.9907 37.6993 19.9907 37.6255 19.9769C37.5563 19.963 37.494 19.9399 37.4386 19.9076C37.3832 19.8707 37.3417 19.8315 37.314 19.7899L36.774 19.0492L39.827 16.4531H41.2324V25.1968H43.0323ZM51.3064 21.4722C51.3064 22.3445 51.2118 23.1037 51.0225 23.7499C50.8379 24.3914 50.5795 24.9222 50.2472 25.3422C49.9195 25.7622 49.5295 26.076 49.0772 26.2837C48.6295 26.4868 48.1449 26.5883 47.6234 26.5883C47.1018 26.5883 46.6172 26.4868 46.1695 26.2837C45.7265 26.076 45.3411 25.7622 45.0134 25.3422C44.6857 24.9222 44.4296 24.3914 44.2449 23.7499C44.0603 23.1037 43.968 22.3445 43.968 21.4722C43.968 20.5953 44.0603 19.8361 44.2449 19.1946C44.4296 18.553 44.6857 18.0223 45.0134 17.6023C45.3411 17.1823 45.7265 16.8708 46.1695 16.6677C46.6172 16.46 47.1018 16.3562 47.6234 16.3562C48.1449 16.3562 48.6295 16.46 49.0772 16.6677C49.5295 16.8708 49.9195 17.1823 50.2472 17.6023C50.5795 18.0223 50.8379 18.553 51.0225 19.1946C51.2118 19.8361 51.3064 20.5953 51.3064 21.4722ZM49.541 21.4722C49.541 20.7476 49.4879 20.1476 49.3818 19.6723C49.2756 19.1969 49.1326 18.8184 48.9526 18.5369C48.7772 18.2554 48.5741 18.0592 48.3433 17.9484C48.1126 17.8331 47.8726 17.7754 47.6234 17.7754C47.3787 17.7754 47.1411 17.8331 46.9103 17.9484C46.6841 18.0592 46.4834 18.2554 46.308 18.5369C46.1326 18.8184 45.9918 19.1969 45.8857 19.6723C45.7842 20.1476 45.7334 20.7476 45.7334 21.4722C45.7334 22.1968 45.7842 22.7968 45.8857 23.2722C45.9918 23.7476 46.1326 24.126 46.308 24.4076C46.4834 24.6891 46.6841 24.8876 46.9103 25.0029C47.1411 25.1137 47.3787 25.1691 47.6234 25.1691C47.8726 25.1691 48.1126 25.1137 48.3433 25.0029C48.5741 24.8876 48.7772 24.6891 48.9526 24.4076C49.1326 24.126 49.2756 23.7476 49.3818 23.2722C49.4879 22.7968 49.541 22.1968 49.541 21.4722ZM59.0612 21.4722C59.0612 22.3445 58.9666 23.1037 58.7773 23.7499C58.5927 24.3914 58.3343 24.9222 58.002 25.3422C57.6743 25.7622 57.2843 26.076 56.832 26.2837C56.3843 26.4868 55.8997 26.5883 55.3782 26.5883C54.8566 26.5883 54.372 26.4868 53.9243 26.2837C53.4813 26.076 53.0959 25.7622 52.7682 25.3422C52.4405 24.9222 52.1844 24.3914 51.9998 23.7499C51.8151 23.1037 51.7228 22.3445 51.7228 21.4722C51.7228 20.5953 51.8151 19.8361 51.9998 19.1946C52.1844 18.553 52.4405 18.0223 52.7682 17.6023C53.0959 17.1823 53.4813 16.8708 53.9243 16.6677C54.372 16.46 54.8566 16.3562 55.3782 16.3562C55.8997 16.3562 56.3843 16.46 56.832 16.6677C57.2843 16.8708 57.6743 17.1823 58.002 17.6023C58.3343 18.0223 58.5927 18.553 58.7773 19.1946C58.9666 19.8361 59.0612 20.5953 59.0612 21.4722ZM57.2958 21.4722C57.2958 20.7476 57.2428 20.1476 57.1366 19.6723C57.0304 19.1969 56.8874 18.8184 56.7074 18.5369C56.532 18.2554 56.3289 18.0592 56.0982 17.9484C55.8674 17.8331 55.6274 17.7754 55.3782 17.7754C55.1336 17.7754 54.8959 17.8331 54.6651 17.9484C54.4389 18.0592 54.2382 18.2554 54.0628 18.5369C53.8874 18.8184 53.7467 19.1969 53.6405 19.6723C53.539 20.1476 53.4882 20.7476 53.4882 21.4722C53.4882 22.1968 53.539 22.7968 53.6405 23.2722C53.7467 23.7476 53.8874 24.126 54.0628 24.4076C54.2382 24.6891 54.4389 24.8876 54.6651 25.0029C54.8959 25.1137 55.1336 25.1691 55.3782 25.1691C55.6274 25.1691 55.8674 25.1137 56.0982 25.0029C56.3289 24.8876 56.532 24.6891 56.7074 24.4076C56.8874 24.126 57.0304 23.7476 57.1366 23.2722C57.2428 22.7968 57.2958 22.1968 57.2958 21.4722ZM64.2891 18.89C64.2891 19.2684 64.2245 19.61 64.0953 19.9146C63.9707 20.2192 63.8022 20.4799 63.5899 20.6969C63.3776 20.9092 63.1307 21.073 62.8491 21.1884C62.5676 21.3038 62.2745 21.3615 61.9699 21.3615C61.6376 21.3615 61.3307 21.3038 61.0492 21.1884C60.7676 21.073 60.523 20.9092 60.3153 20.6969C60.1123 20.4799 59.953 20.2192 59.8376 19.9146C59.7223 19.61 59.6646 19.2684 59.6646 18.89C59.6646 18.5023 59.7223 18.1515 59.8376 17.8377C59.953 17.5238 60.1123 17.2584 60.3153 17.0415C60.523 16.8246 60.7676 16.6585 61.0492 16.5431C61.3307 16.4231 61.6376 16.3631 61.9699 16.3631C62.3022 16.3631 62.6091 16.4231 62.8907 16.5431C63.1768 16.6585 63.4237 16.8246 63.6314 17.0415C63.8391 17.2584 64.0007 17.5238 64.116 17.8377C64.2314 18.1515 64.2891 18.5023 64.2891 18.89ZM62.9737 18.89C62.9737 18.6223 62.9461 18.3984 62.8907 18.2184C62.8399 18.0384 62.7684 17.8931 62.6761 17.7823C62.5884 17.6715 62.4822 17.5931 62.3576 17.5469C62.2376 17.4961 62.1084 17.4708 61.9699 17.4708C61.8315 17.4708 61.7022 17.4961 61.5822 17.5469C61.4622 17.5931 61.3584 17.6715 61.2707 17.7823C61.1876 17.8931 61.1207 18.0384 61.0699 18.2184C61.0192 18.3984 60.9938 18.6223 60.9938 18.89C60.9938 19.1484 61.0192 19.3653 61.0699 19.5407C61.1207 19.7115 61.1876 19.8499 61.2707 19.9561C61.3584 20.0623 61.4622 20.1384 61.5822 20.1846C61.7022 20.2307 61.8315 20.2538 61.9699 20.2538C62.1084 20.2538 62.2376 20.2307 62.3576 20.1846C62.4822 20.1384 62.5884 20.0623 62.6761 19.9561C62.7684 19.8499 62.8399 19.7115 62.8907 19.5407C62.9461 19.3653 62.9737 19.1484 62.9737 18.89ZM67.6191 16.7369C67.6791 16.6677 67.7483 16.6054 67.8268 16.55C67.9098 16.4946 68.0252 16.4669 68.1729 16.4669H69.419L61.9838 26.2214C61.9238 26.2952 61.8522 26.3575 61.7692 26.4083C61.6861 26.4545 61.5845 26.4775 61.4645 26.4775H60.1907L67.6191 16.7369ZM69.9452 24.1237C69.9452 24.5022 69.8806 24.8437 69.7513 25.1483C69.6267 25.4529 69.4583 25.7137 69.246 25.9306C69.0337 26.1429 68.7867 26.3091 68.5052 26.4291C68.2237 26.5445 67.9306 26.6022 67.626 26.6022C67.2937 26.6022 66.9868 26.5445 66.7052 26.4291C66.4237 26.3091 66.1791 26.1429 65.9714 25.9306C65.7683 25.7137 65.6091 25.4529 65.4937 25.1483C65.3783 24.8437 65.3206 24.5022 65.3206 24.1237C65.3206 23.736 65.3783 23.3853 65.4937 23.0714C65.6091 22.7576 65.7683 22.4922 65.9714 22.2753C66.1791 22.0584 66.4237 21.8922 66.7052 21.7768C66.9868 21.6568 67.2937 21.5968 67.626 21.5968C67.9583 21.5968 68.2652 21.6568 68.5467 21.7768C68.8329 21.8922 69.0775 22.0584 69.2806 22.2753C69.4883 22.4922 69.6498 22.7576 69.7652 23.0714C69.8852 23.3853 69.9452 23.736 69.9452 24.1237ZM68.6229 24.1237C68.6229 23.856 68.5975 23.6322 68.5467 23.4522C68.496 23.2722 68.4244 23.1268 68.3321 23.0161C68.2444 22.9053 68.1383 22.8268 68.0137 22.7807C67.8937 22.7299 67.7644 22.7045 67.626 22.7045C67.4875 22.7045 67.3583 22.7299 67.2383 22.7807C67.1183 22.8268 67.0145 22.9053 66.9268 23.0161C66.8391 23.1268 66.7698 23.2722 66.7191 23.4522C66.6729 23.6322 66.6498 23.856 66.6498 24.1237C66.6498 24.3822 66.6729 24.5991 66.7191 24.7745C66.7698 24.9499 66.8391 25.0906 66.9268 25.1968C67.0145 25.3029 67.1183 25.3791 67.2383 25.4252C67.3583 25.4714 67.4875 25.4945 67.626 25.4945C67.7644 25.4945 67.8937 25.4714 68.0137 25.4252C68.1383 25.3791 68.2444 25.3029 68.3321 25.1968C68.4244 25.0906 68.496 24.9499 68.5467 24.7745C68.5975 24.5991 68.6229 24.3822 68.6229 24.1237ZM79.7343 18.2877C79.6789 18.3846 79.6189 18.4561 79.5543 18.5023C79.4943 18.5438 79.4181 18.5646 79.3258 18.5646C79.2289 18.5646 79.1227 18.53 79.0074 18.4607C78.8966 18.3869 78.7627 18.3061 78.6058 18.2184C78.4489 18.1307 78.2643 18.0523 78.052 17.9831C77.8443 17.9092 77.5974 17.8723 77.3112 17.8723C77.0528 17.8723 76.8266 17.9046 76.6328 17.9692C76.4389 18.0292 76.2751 18.1146 76.1412 18.2254C76.012 18.3361 75.9151 18.47 75.8505 18.6269C75.7859 18.7792 75.7536 18.9477 75.7536 19.1323C75.7536 19.3676 75.8182 19.5638 75.9474 19.7207C76.0812 19.8776 76.2566 20.0115 76.4735 20.1223C76.6905 20.233 76.9374 20.3322 77.2143 20.4199C77.4912 20.5076 77.7751 20.6022 78.0658 20.7038C78.3566 20.8007 78.6404 20.9161 78.9174 21.0499C79.1943 21.1792 79.4412 21.3453 79.6581 21.5484C79.875 21.7468 80.0481 21.9915 80.1773 22.2822C80.3112 22.573 80.3781 22.9261 80.3781 23.3414C80.3781 23.7937 80.2996 24.2183 80.1427 24.6153C79.9904 25.0076 79.7643 25.3514 79.4643 25.6468C79.1689 25.9375 78.8066 26.1683 78.3774 26.3391C77.9481 26.5052 77.4566 26.5883 76.9028 26.5883C76.5843 26.5883 76.2705 26.556 75.9612 26.4914C75.652 26.4314 75.3543 26.3437 75.0682 26.2283C74.7866 26.1129 74.5213 25.9745 74.272 25.8129C74.0228 25.6514 73.8013 25.4714 73.6074 25.2729L74.1543 24.3799C74.2005 24.3153 74.2605 24.2622 74.3343 24.2207C74.4082 24.1745 74.4866 24.1514 74.5697 24.1514C74.6851 24.1514 74.8097 24.1999 74.9436 24.2968C75.0774 24.3891 75.2366 24.493 75.4213 24.6083C75.6059 24.7237 75.8205 24.8299 76.0651 24.9268C76.3143 25.0191 76.612 25.0653 76.9582 25.0653C77.4889 25.0653 77.8997 24.9406 78.1904 24.6914C78.4812 24.4376 78.6266 24.0753 78.6266 23.6045C78.6266 23.3414 78.5597 23.1268 78.4258 22.9607C78.2966 22.7945 78.1235 22.6561 77.9066 22.5453C77.6897 22.4299 77.4428 22.333 77.1658 22.2545C76.8889 22.1761 76.6074 22.0907 76.3212 21.9984C76.0351 21.9061 75.7536 21.7953 75.4766 21.6661C75.1997 21.5368 74.9528 21.3684 74.7359 21.1607C74.519 20.953 74.3436 20.6945 74.2097 20.3853C74.0805 20.0715 74.0159 19.6861 74.0159 19.2292C74.0159 18.8646 74.0874 18.5092 74.2305 18.163C74.3782 17.8169 74.5905 17.51 74.8674 17.2423C75.1443 16.9746 75.4859 16.76 75.892 16.5985C76.2982 16.4369 76.7643 16.3562 77.2905 16.3562C77.8812 16.3562 78.4258 16.4485 78.9243 16.6331C79.4227 16.8177 79.8473 17.0761 80.1981 17.4084L79.7343 18.2877ZM83.5949 17.9484V20.7245H87.0979V22.1576H83.5949V24.9891H88.0394V26.4775H81.7257V16.4669H88.0394V17.9484H83.5949ZM97.4487 21.4584V25.5083C96.9411 25.8822 96.3988 26.1568 95.8218 26.3322C95.2495 26.5029 94.6357 26.5883 93.9803 26.5883C93.1634 26.5883 92.4227 26.4614 91.7581 26.2075C91.0981 25.9537 90.5327 25.6006 90.0619 25.1483C89.5958 24.696 89.2358 24.156 88.9819 23.5284C88.7281 22.9007 88.6012 22.2153 88.6012 21.4722C88.6012 20.7199 88.7235 20.0299 88.9681 19.4023C89.2127 18.7746 89.5589 18.2346 90.0065 17.7823C90.4588 17.33 91.0058 16.9792 91.6473 16.73C92.2888 16.4808 93.0088 16.3562 93.8073 16.3562C94.2134 16.3562 94.5919 16.3885 94.9426 16.4531C95.298 16.5177 95.6257 16.6077 95.9257 16.7231C96.2303 16.8338 96.5072 16.97 96.7564 17.1315C97.0057 17.2931 97.2341 17.4708 97.4418 17.6646L96.9088 18.5092C96.8257 18.643 96.7172 18.7261 96.5834 18.7584C96.4495 18.7861 96.3041 18.7515 96.1472 18.6546C95.9949 18.5669 95.8426 18.4792 95.6903 18.3915C95.538 18.3038 95.3672 18.2277 95.178 18.163C94.9934 18.0984 94.7834 18.0454 94.548 18.0038C94.3173 17.9623 94.0496 17.9415 93.745 17.9415C93.2511 17.9415 92.8034 18.0246 92.4019 18.1907C92.005 18.3569 91.6658 18.5946 91.3842 18.9038C91.1027 19.213 90.8858 19.5846 90.7335 20.0184C90.5812 20.4522 90.505 20.9369 90.505 21.4722C90.505 22.0445 90.5858 22.5568 90.7473 23.0091C90.9135 23.4568 91.1442 23.8376 91.4396 24.1514C91.7396 24.4606 92.0996 24.6983 92.5196 24.8645C92.9396 25.026 93.408 25.1068 93.925 25.1068C94.2942 25.1068 94.6242 25.0676 94.9149 24.9891C95.2057 24.9106 95.4895 24.8045 95.7665 24.6706V22.8568H94.5065C94.3865 22.8568 94.2919 22.8245 94.2226 22.7599C94.158 22.6907 94.1257 22.6076 94.1257 22.5107V21.4584H97.4487ZM102.995 24.9753C103.355 24.9753 103.676 24.9153 103.958 24.7953C104.244 24.6753 104.484 24.5068 104.678 24.2899C104.871 24.073 105.019 23.8099 105.121 23.5007C105.227 23.1914 105.28 22.8453 105.28 22.4622V16.4669H107.142V22.4622C107.142 23.0576 107.045 23.6091 106.851 24.1168C106.662 24.6199 106.387 25.056 106.027 25.4252C105.672 25.7899 105.238 26.076 104.726 26.2837C104.214 26.4868 103.637 26.5883 102.995 26.5883C102.349 26.5883 101.77 26.4868 101.258 26.2837C100.745 26.076 100.309 25.7899 99.9491 25.4252C99.5937 25.056 99.3191 24.6199 99.1253 24.1168C98.9361 23.6091 98.8414 23.0576 98.8414 22.4622V16.4669H100.704V22.4553C100.704 22.8384 100.754 23.1845 100.856 23.4937C100.962 23.803 101.112 24.0683 101.306 24.2899C101.504 24.5068 101.744 24.6753 102.026 24.7953C102.312 24.9153 102.635 24.9753 102.995 24.9753ZM111.991 21.2299C112.342 21.2299 112.646 21.1861 112.905 21.0984C113.168 21.0107 113.382 20.8907 113.548 20.7384C113.719 20.5815 113.846 20.3969 113.929 20.1846C114.012 19.9723 114.054 19.7392 114.054 19.4853C114.054 18.9777 113.885 18.5877 113.548 18.3154C113.216 18.0431 112.706 17.9069 112.018 17.9069H110.828V21.2299H111.991ZM116.781 26.4775H115.099C114.781 26.4775 114.55 26.3529 114.407 26.1037L112.302 22.8984C112.224 22.7784 112.136 22.693 112.039 22.6422C111.947 22.5914 111.808 22.5661 111.624 22.5661H110.828V26.4775H108.965V16.4669H112.018C112.697 16.4669 113.278 16.5385 113.763 16.6815C114.252 16.82 114.651 17.0161 114.961 17.27C115.275 17.5238 115.505 17.8284 115.653 18.1838C115.801 18.5346 115.875 18.9223 115.875 19.3469C115.875 19.6838 115.824 20.0023 115.722 20.3022C115.625 20.6022 115.482 20.8745 115.293 21.1192C115.108 21.3638 114.878 21.5784 114.601 21.763C114.328 21.9476 114.017 22.093 113.666 22.1991C113.786 22.2684 113.897 22.3514 113.998 22.4484C114.1 22.5407 114.192 22.6514 114.275 22.7807L116.781 26.4775ZM126.997 21.4722C126.997 22.2061 126.875 22.8868 126.63 23.5145C126.39 24.1376 126.049 24.6776 125.606 25.1345C125.163 25.5914 124.63 25.9491 124.006 26.2075C123.383 26.4614 122.691 26.5883 121.93 26.5883C121.173 26.5883 120.483 26.4614 119.86 26.2075C119.237 25.9491 118.701 25.5914 118.253 25.1345C117.81 24.6776 117.467 24.1376 117.222 23.5145C116.977 22.8868 116.855 22.2061 116.855 21.4722C116.855 20.7384 116.977 20.0599 117.222 19.4369C117.467 18.8092 117.81 18.2669 118.253 17.81C118.701 17.3531 119.237 16.9977 119.86 16.7438C120.483 16.4854 121.173 16.3562 121.93 16.3562C122.437 16.3562 122.915 16.4162 123.363 16.5362C123.81 16.6515 124.221 16.8177 124.595 17.0346C124.969 17.2469 125.303 17.5077 125.599 17.8169C125.899 18.1215 126.153 18.463 126.36 18.8415C126.568 19.22 126.725 19.6307 126.831 20.0738C126.942 20.5169 126.997 20.983 126.997 21.4722ZM125.093 21.4722C125.093 20.923 125.02 20.4315 124.872 19.9976C124.724 19.5592 124.514 19.1876 124.242 18.883C123.97 18.5784 123.637 18.3454 123.245 18.1838C122.857 18.0223 122.419 17.9415 121.93 17.9415C121.44 17.9415 121 18.0223 120.607 18.1838C120.22 18.3454 119.887 18.5784 119.61 18.883C119.338 19.1876 119.128 19.5592 118.98 19.9976C118.833 20.4315 118.759 20.923 118.759 21.4722C118.759 22.0215 118.833 22.5153 118.98 22.9537C119.128 23.3876 119.338 23.7568 119.61 24.0614C119.887 24.3614 120.22 24.5922 120.607 24.7537C121 24.9153 121.44 24.996 121.93 24.996C122.419 24.996 122.857 24.9153 123.245 24.7537C123.637 24.5922 123.97 24.3614 124.242 24.0614C124.514 23.7568 124.724 23.3876 124.872 22.9537C125.02 22.5153 125.093 22.0215 125.093 21.4722Z" fill="#00441F"/>
<path d="M29.1675 5.22096C21.644 4.36828 15.0732 0.857422 15.0732 0.857422C15.0732 0.857422 8.50244 4.36841 0.978921 5.22096C0.978921 5.22096 -0.692962 25.4512 15.0732 32.8574C30.8393 25.4507 29.1675 5.22096 29.1675 5.22096Z" fill="#00441F"/>
<path d="M20.109 14.2731H19.4516V12.0177C19.4516 9.63828 17.4795 7.70508 15.0521 7.70508C12.6248 7.70508 10.6527 9.63828 10.6527 12.0177V14.2731H9.99528C9.48941 14.2731 9.05994 14.6948 9.05994 15.19V22.6245C9.05994 23.1204 9.49006 23.5414 9.99528 23.5414H20.1088C20.6147 23.5414 21.0442 23.1197 21.0442 22.6245V15.1905C21.0442 14.694 20.6147 14.273 20.1088 14.273L20.109 14.2731ZM16.0382 20.8159H14.0411L14.3948 19.1551C14.0661 18.9569 13.8389 18.585 13.8389 18.164C13.8389 17.5196 14.3698 16.9991 15.0271 16.9991C15.6845 16.9991 16.2154 17.5196 16.2154 18.164C16.2154 18.5856 15.9882 18.9324 15.6595 19.1551L16.0382 20.8159ZM15.0521 14.2731H12.2205V12.0177C12.2205 10.481 13.4845 9.24197 15.0521 9.24197C16.6197 9.24197 17.8838 10.4811 17.8838 12.0177V14.2731H15.0521Z" fill="white"/>
</svg>
